<?xml version="1.0" encoding="utf-8"?>
<!-- Generator: Adobe Illustrator 21.0.0, SVG Export Plug-In . SVG Version: 6.00 Build 0)  -->
<svg version="1.1" id="Layer_1" xmlns="http://www.w3.org/2000/svg" xmlns:xlink="http://www.w3.org/1999/xlink" x="0px" y="0px"
	 width="1296.3px" height="666.3px" viewBox="0 0 1296.3 666.3" enable-background="new 0 0 1296.3 666.3" xml:space="preserve">
<path fill-rule="evenodd" clip-rule="evenodd" fill="#C81F3A" d="M299.9,61.4c63.2,3.5,127.2,47.5,187.6,107.9
	c75.9,75.9,124.5,155.9,100.3,233.8c16-45.7,24.9-92.2,24.9-134.4c0-6.5-0.2-12.7-0.6-18.8c-22.5-37.1-53.5-73.8-89.4-109.8
	c-25-25-50.5-47.6-76.2-66.8c-38.3-8.6-81.3-12.1-126.8-12.1C313,61.2,306.4,61.3,299.9,61.4"/>
<path fill-rule="evenodd" clip-rule="evenodd" fill="#1B468A" d="M127.2,94.9C80.2,150.5,43,227.7,25,306.6
	c6.7,59,28.2,122.9,60.4,179.9c-49.5-111.3,5.5-286.1,91.6-372.2c31-31,63-47.2,95.3-51.8C217.6,65.9,167.7,75.6,127.2,94.9"/>
<path fill-rule="evenodd" clip-rule="evenodd" fill="#EE7E22" d="M127.2,94.9c40.5-19.2,90.4-28.9,145-32.3
	c9.2-1.3,18.4-1.7,27.7-1.2c6.5-0.2,13.1-0.2,19.7-0.2c45.5,0,88.5,3.5,126.8,12.1c-99.5-74-203.3-96.2-299.7,0.3
	C140.1,80.2,133.5,87.4,127.2,94.9"/>
<path fill-rule="evenodd" clip-rule="evenodd" fill="#80C9DA" d="M127.2,94.9C63.4,125.1,22.8,179,22.8,268.7
	c0,12.3,0.8,25,2.2,37.9C43,227.7,80.2,150.5,127.2,94.9"/>
<path fill-rule="evenodd" clip-rule="evenodd" fill="#80C9DA" d="M446.4,73.3c25.8,19.2,51.2,41.8,76.2,66.8
	c36,36,66.9,72.7,89.4,109.8C605.2,145.3,539.7,94.2,446.4,73.3"/>
<path fill-rule="evenodd" clip-rule="evenodd" fill="#EE7E22" d="M612.7,268.7c0,42.2-8.9,88.7-24.9,134.4c-1.4,4.5-3,9-4.9,13.4
	c-26.4,69.3-68.9,135.6-121.3,181.2c48.4-22.6,91.9-51.7,124.8-84.5c85.4-85.4,79.2-175.3,25.7-263.3
	C612.5,256,612.7,262.3,612.7,268.7"/>
<path fill-rule="evenodd" clip-rule="evenodd" fill="#C81F3A" d="M111.8,528.3c38.8,54.7,87.9,98.7,142.7,118.5
	c68.6-0.1,142.3-18.7,207.2-49C514,552.2,556.5,485.9,583,416.6c-8.7,20.6-22.6,41-42.7,61.1C439.9,578,219.1,636.1,118.8,535.8
	C116.4,533.3,114,530.8,111.8,528.3"/>
<path fill-rule="evenodd" clip-rule="evenodd" fill="#80C9DA" d="M254.5,646.7c20.4,7.4,41.5,11.4,63.3,11.4
	c52.3,0,101.3-23.3,143.9-60.3C396.8,628,323.1,646.6,254.5,646.7"/>
<path fill-rule="evenodd" clip-rule="evenodd" fill="#EE7E22" d="M76.4,583.6c44.5,44.5,108.7,63.3,178.1,63.1
	c-54.8-19.8-103.9-63.7-142.7-118.5c-10.9-12.5-19.6-26.5-26.4-41.7c-32.2-57-53.7-120.9-60.4-179.9
	C1.3,410.9,11.1,518.3,76.4,583.6"/>
<path fill-rule="evenodd" clip-rule="evenodd" fill="#1A0A3A" d="M85.4,486.5c8.1,14.4,17,28.4,26.4,41.7c2.3,2.6,4.6,5.1,7,7.5
	c100.3,100.3,321.1,42.2,421.4-58.1c20.1-20.1,34.1-40.5,42.7-61.1c1.7-4.5,3.3-8.9,4.9-13.4c24.2-77.9-24.4-158-100.3-233.8
	C427.1,108.9,363.2,64.9,299.9,61.4c-9.4,0.2-18.6,0.6-27.7,1.2c-32.3,4.6-64.3,20.7-95.3,51.8C90.9,200.4,35.8,375.3,85.4,486.5"/>
<path fill="#1B468A" d="M776.5,601.6l12.8-34h8.3l12.4,34h-7.7l-2.7-7.5H787l-2.8,7.5H776.5z M789,588.3h8.8l-4.3-12.2L789,588.3z"
	/>
<path fill="#1B468A" d="M830,567.6c3.3,0,5.8,0.8,7.4,2.3c2,1.8,3,4.6,3,8.3c0,4.4-1,7.3-3.1,8.7c-0.7,0.5-1.2,0.8-1.5,0.9
	c-0.3,0.1-0.8,0.3-1.5,0.5l7.2,13.4h-8.2l-6.3-12.9l-6.4-0.7v13.5h-7.3v-34H830z M820.7,583h8.6c1.4,0,2.3-0.3,2.9-0.9
	c0.6-0.6,0.9-1.9,0.9-3.8c0-1.9-0.3-3.2-0.9-3.9c-0.6-0.7-1.6-1-2.8-1h-8.6V583z"/>
<path fill="#1B468A" d="M844,601.6l12.8-34h8.3l12.4,34h-7.7l-2.7-7.5h-12.5l-2.8,7.5H844z M856.5,588.3h8.8l-4.3-12.2L856.5,588.3z
	"/>
<path fill="#1B468A" d="M881.4,601.6v-34h15.7c3.7,0,6.4,0.8,8.1,2.5c1.7,1.7,2.6,3.9,2.6,6.6c0,1.7-0.4,3.3-1.3,4.7
	c-0.9,1.4-2.2,2.3-3.9,2.5c1.7,0.3,3.1,1.1,4.2,2.5c1.1,1.4,1.7,3.1,1.7,5.2c0,3.3-0.9,5.7-2.7,7.4c-1.8,1.7-4.6,2.6-8.6,2.6H881.4z
	 M888.7,581.1h8c1.3,0,2.3-0.3,3-1c0.7-0.7,1-1.7,1-3c0-1.3-0.4-2.3-1.1-2.9c-0.8-0.6-1.7-0.9-2.9-0.9h-8V581.1z M901.2,591.4
	c0-1.4-0.3-2.5-1-3.4c-0.7-0.9-1.8-1.3-3.2-1.3h-8.3v9.3l8.3,0C899.8,595.9,901.2,594.4,901.2,591.4"/>
<polygon fill="#1B468A" points="943.3,601.6 936,601.6 936,591.1 924.4,567.6 932.3,567.6 939.8,583.9 947.9,567.6 955.8,567.6 
	943.3,591.1 "/>
<path fill="#1B468A" d="M956.8,593.2c-0.3-1.1-0.5-2.3-0.6-3.7c-0.1-1.4-0.2-3.1-0.2-5c0-2,0.1-3.8,0.4-5.6c0.3-1.8,0.6-3.2,1.1-4.5
	c0.5-1.2,1.1-2.3,1.8-3.1c0.8-0.9,1.5-1.5,2.3-2c0.8-0.5,1.7-0.9,2.9-1.2c1.8-0.5,3.7-0.7,5.7-0.7c2,0,3.4,0,4.4,0.1
	c0.9,0.1,1.9,0.2,2.9,0.4c1,0.2,1.9,0.5,2.6,0.9c0.7,0.4,1.5,0.8,2.2,1.4c0.7,0.6,1.4,1.3,1.8,2.2c0.5,0.9,0.9,1.9,1.3,3
	c0.8,2.3,1.1,5,1.1,8c0,3.1-0.1,5.4-0.4,7.1c-0.3,1.7-0.6,3.1-1,4.3c-0.4,1.2-1,2.2-1.7,3.1c-0.7,0.9-1.5,1.5-2.2,2
	c-0.8,0.5-1.7,0.9-2.8,1.2c-2.6,0.7-5.9,0.9-10.1,0.7c-2.1-0.1-3.7-0.3-4.7-0.7c-1-0.4-1.8-0.8-2.5-1.2c-0.7-0.4-1.3-0.9-1.8-1.5
	c-0.5-0.6-1-1.3-1.4-2.2C957.4,595.3,957,594.3,956.8,593.2 M963.8,577.8c-0.2,0.8-0.3,1.8-0.4,3c-0.1,1.1-0.2,2.6-0.2,4.3
	c0,1.7,0.1,3.2,0.2,4.4c0.1,1.2,0.4,2.3,0.7,3.1c0.3,0.9,0.8,1.5,1.5,2c1.2,0.8,3,1.2,5.6,1.2c2.4,0,4.2-0.4,5.5-1.2
	c1.7-1.1,2.5-4.4,2.5-9.8c0-3.6-0.2-6-0.6-7.2c-0.4-1.2-0.8-2-1.2-2.5c-0.4-0.5-0.9-0.9-1.5-1.2c-1.1-0.4-2.3-0.6-3.8-0.6
	c-1.5,0-2.5,0-3,0.1c-0.6,0-1.2,0.1-1.8,0.3c-0.6,0.2-1.1,0.4-1.5,0.7c-0.4,0.3-0.7,0.8-1.1,1.3C964.3,576.3,964,577,963.8,577.8"/>
<path fill="#1B468A" d="M1006.1,601.9h-0.7c-4.2,0-6.9-0.4-8.3-1.2c-0.6-0.4-1.4-0.9-2.2-1.7c-0.8-0.7-1.5-1.6-1.9-2.7
	c-1-2.6-1.6-5.8-1.6-9.6v-19.2h7.3v19.2c0,3,0.3,5.2,1,6.6c0.6,1.2,1.8,2,3.5,2.4c0.8,0.1,1.9,0.2,3.3,0.2c1.4,0,2.6-0.2,3.6-0.7
	c2-1,3.1-3.8,3.1-8.4v-19.2h7.3v19.2c0,4.9-0.8,8.4-2.4,10.6c-0.5,0.8-1,1.4-1.5,1.9c-0.5,0.5-1.1,0.9-1.9,1.3
	c-0.8,0.4-1.4,0.6-2,0.8c-0.6,0.2-1.3,0.3-2.2,0.4C1009.2,601.8,1007.8,601.9,1006.1,601.9"/>
<polygon fill="#1B468A" points="1024.4,573.6 1024.4,567.6 1052.5,567.6 1052.5,573.6 1042,573.6 1042,601.6 1034.7,601.6 
	1034.7,573.6 "/>
<polygon fill="#1B468A" points="1056.8,601.6 1056.8,567.6 1064.1,567.6 1064.1,582.2 1077.1,582.2 1077.1,567.6 1084.4,567.6 
	1084.4,601.6 1077.1,601.6 1077.1,588.1 1064.1,588.1 1064.1,601.6 "/>
<path fill="#1B468A" d="M1104.5,571.8c1.4-2,3.3-3.4,5.8-4c1.4-0.3,2.9-0.5,4.6-0.5c5,0,9.4,0.5,13.3,1.5v5.1
	c-0.5-0.1-1-0.1-1.4-0.1c-0.4,0-0.9-0.1-1.5-0.1c-0.6,0-1.2-0.1-1.9-0.1c-0.7,0-1.4-0.1-2.1-0.1c-1.6-0.1-3.1-0.1-4.4-0.1
	c-1.3,0-2.3,0.1-3,0.2c-0.7,0.1-1.4,0.4-2.1,0.8c-0.7,0.4-1.1,1-1.5,1.9c-0.7,1.8-1,4.7-1,8.6c0,3.9,0.5,6.8,1.5,8.5
	c1,1.8,3,2.6,5.8,2.6c3.3,0,6.6-0.1,9.9-0.3l1.7-0.1v5.1c-3.1,0.9-7.1,1.3-12.1,1.3h-1.2c-4.6,0-8-1.5-10-4.5c-2-2.9-3-7.3-3-13.1
	C1101.9,578.5,1102.7,574.3,1104.5,571.8"/>
<path fill="#1B468A" d="M1135.2,568.8c0.9-0.5,1.7-0.8,2.6-1c0.8-0.2,1.5-0.3,2-0.3c0.5,0,3,0.1,7.5,0.2c4.5,0.1,7.9,0.3,10.1,0.6
	v5.4h-15c-1.3,0-2.1,0.3-2.4,0.8c-0.2,0.4-0.3,1-0.3,1.8v5.3l15.4,0.5v5.4l-15.4,0.4v5.3c0,1.2,0.4,1.9,1.1,2.1
	c0.5,0.2,1.2,0.3,2.1,0.3h14.5v5.3c-1.7,0.2-6,0.4-12.8,0.7l-3.4,0.1h-1c-0.4,0-0.8,0-1.4-0.1c-0.6,0-1.3-0.2-2.1-0.5
	c-0.8-0.3-1.6-0.7-2.2-1.1c-1.4-1.1-2.1-2.8-2.1-5.2v-20.3C1132.4,571.8,1133.3,569.9,1135.2,568.8"/>
<polygon fill="#1B468A" points="1162,601.6 1162,567.6 1169.4,567.6 1184.5,589.6 1184.5,567.6 1191.8,567.6 1191.8,601.6 
	1184.5,601.6 1169.4,579.9 1169.4,601.6 "/>
<polygon fill="#1B468A" points="1195.7,573.6 1195.7,567.6 1223.9,567.6 1223.9,573.6 1213.3,573.6 1213.3,601.6 1206,601.6 
	1206,573.6 "/>
<path fill="#1B468A" d="M1229.7,568.8c0.9-0.5,1.7-0.8,2.6-1c0.8-0.2,1.5-0.3,2-0.3c0.5,0,3,0.1,7.5,0.2c4.5,0.1,7.9,0.3,10.1,0.6
	v5.4h-15c-1.3,0-2.1,0.3-2.4,0.8c-0.2,0.4-0.3,1-0.3,1.8v5.3l15.4,0.5v5.4l-15.4,0.4v5.3c0,1.2,0.4,1.9,1.1,2.1
	c0.5,0.2,1.2,0.3,2.1,0.3h14.5v5.3c-1.7,0.2-6,0.4-12.8,0.7l-3.4,0.1h-1c-0.4,0-0.8,0-1.4-0.1c-0.6,0-1.3-0.2-2.1-0.5
	c-0.8-0.3-1.6-0.7-2.2-1.1c-1.4-1.1-2.1-2.8-2.1-5.2v-20.3C1226.9,571.8,1227.9,569.9,1229.7,568.8"/>
<path fill="#1B468A" d="M1272.7,567.6c3.3,0,5.8,0.8,7.4,2.3c2,1.8,3,4.6,3,8.3c0,4.4-1,7.3-3.1,8.7c-0.7,0.5-1.2,0.8-1.5,0.9
	c-0.3,0.1-0.8,0.3-1.5,0.5l7.2,13.4h-8.2l-6.3-12.9l-6.4-0.7v13.5h-7.3v-34H1272.7z M1263.4,583h8.6c1.4,0,2.3-0.3,2.9-0.9
	c0.6-0.6,0.9-1.9,0.9-3.8c0-1.9-0.3-3.2-0.9-3.9c-0.6-0.7-1.6-1-2.8-1h-8.6V583z"/>
<path fill-rule="evenodd" clip-rule="evenodd" fill="#1A0A3A" d="M838.2,526.3l0.1-0.1c2.5-2.3,3.5-5.3,3.5-8.6c0-3.4-1-6.6-3.5-9
	c-2.5-2.4-5.5-3.7-9-3.7c-3.4,0-6.4,1.4-8.8,3.9c-2.5,2.3-3.7,5.3-3.7,8.7c0,3.3,1.1,6.4,3.6,8.7c2.5,2.3,5.5,3.6,8.9,3.6
	C832.7,529.9,835.9,528.9,838.2,526.3 M859.9,398.4l0.1-0.1c2.4-2.3,3.5-5.3,3.5-8.6c0-3.4-1.4-6.3-3.6-8.7
	c-2.3-2.5-5.2-3.7-8.6-3.7c-3.4,0-6.3,1.4-8.7,4c-2.4,2.3-3.8,5.1-3.8,8.5c0,3.4,1.4,6.3,3.9,8.7c2.3,2.4,5.2,3.6,8.5,3.6
	C854.5,402,857.5,401,859.9,398.4 M896.6,306.8v29.6c0,4.4-2.4,5.7-6.5,5.7h-91.3c-1,0-2.1-0.2-3.1-0.4c-1.7-0.3-3.3-0.9-4.8-1.5
	c-1.8-0.7-3.2-1.9-4.3-3.4c-1.3-1.8-1.7-3.9-1.7-6c0-2.4,0.5-4.8,1.8-6.9c1-1.6,2.3-3,4.2-3.7c1.6-0.6,3.2-1.2,4.9-1.6
	c1-0.2,2-0.4,3.1-0.4h52.9l0.1,0c1.7-0.3,4.4-0.6,5.9-1.3c4.1-2.2,5.9-5.8,5.9-10.4c0-4.5-1.9-8.2-5.9-10.3
	c-1.6-0.8-4.1-1.1-5.9-1.4l-0.2,0h-53.9c-4.4,0-9,1.2-13.1,2.6c-4.9,1.6-9.4,4.1-13,7.8c-6.6,6.8-9.1,15.5-9.1,24.9
	c0,9.3,2.4,18.1,9.2,24.8c3.5,3.6,7.7,6.2,12.4,7.9c4.4,1.6,9,2.6,13.6,2.6h106.3c0.6,0,1.3-0.1,1.9-0.2c1.4-0.2,2.9-0.9,4.1-1.5
	c1.6-0.8,3.2-1.8,4.5-3.1c2.8-3.1,5.4-6.9,5.4-11.3l0-42.2c-0.1-2-0.4-4.2-1.4-6c-2.1-4.1-5.7-6.1-10.3-6.1c-4.6,0-8.2,2-10.2,6.2
	c-0.8,1.8-1.3,3.7-1.5,5.6L896.6,306.8z M983.2,365.3v-0.2h28.7c3.6,0,7-1,10-3.1l2.1-1.5v4.6h17.8v0.2h164.1
	c6.7,0,14.8-0.9,20.2-5.3c5.6-4.5,7.3-11.5,7.3-18.4v-92.9l0-0.2c-0.4-1.9-0.8-3.8-1.4-5.6l-0.1-0.3l-0.2-0.3
	c-2.3-3.9-6.2-5.4-10.6-5.4c-4.6,0-8.6,1.8-10.8,5.9c-0.8,1.6-1.2,4.1-1.4,5.9l0,0.1v87.8c0,1.2-0.2,2.9-1.1,3.9
	c-0.8,0.9-2.3,1.2-3.4,1.3l-0.1,0h-23.8v-39.1l0-0.2c-0.3-1.5-0.7-3.6-1.4-4.9c-2.1-3.9-6-5.3-10.2-5.3c-4.2,0-8.1,1.3-10.3,5.1
	c-0.8,1.5-1.2,3.5-1.4,5.1l0,0.2v39.5h-22.5v-39.5l0-0.2c-0.3-1.5-0.6-3.6-1.4-5c-2.1-3.9-6-5.2-10.3-5.2c-4.2,0-8,1.4-10.2,5
	c-0.4,0.7-0.7,1.4-0.9,2.2c-0.2,0.6-0.3,1.2-0.3,1.8c0,0.5-0.1,1-0.1,1.6v39.3h-22.7v-39.5l0-0.2c-0.3-1.5-0.6-3.6-1.4-5
	c-2.1-3.9-6-5.2-10.3-5.2c-4.2,0-8.3,1.2-10.3,5.1c-0.8,1.7-1.4,3.4-1.6,5.2l0,0.1v39h-18.7v-0.2h-17.6v-35.1l0-0.2
	c-0.2-1.7-0.6-4.1-1.3-5.6c-2.2-4.1-5.9-6.2-10.5-6.2c-4.5,0-8,2.1-10.1,6.1c-1,1.9-1.4,3.9-1.4,6v28.9l0,0.1c-0.4,3.4-1.7,6-5.6,6
	h-0.5h-0.3h-20.1v0.2h-12.6l-0.1,0c-0.8-0.1-2-0.3-2.7-0.7l-0.5-0.3l-0.1-0.6c-0.1-0.4-0.1-1.1-0.1-1.5v-1.1v-1.5v-84.5
	c0-3.5-0.5-7.5-2.5-10.5c-2-3.3-5.2-5-9-5c-3.7,0-7.1,1.1-9.5,4c-2.4,3.1-3.4,6.7-3.4,10.6v90.5v0.9c0,2.9,0.1,5.8,0.6,8.7
	c0.5,2.5,1.4,4.8,2.6,7.1c1.6,2.9,4.3,4.7,7.3,5.7c3.7,1.3,7.8,1.6,11.6,1.6H983.2z M1018.1,398.4l0.1-0.1c2.4-2.3,3.5-5.3,3.5-8.6
	c0-3.4-1.4-6.3-3.6-8.7c-2.3-2.5-5.2-3.7-8.6-3.7c-3.4,0-6.3,1.4-8.7,4c-2.4,2.3-3.8,5.1-3.8,8.5c0,3.4,1.4,6.3,3.9,8.7
	c2.3,2.4,5.2,3.6,8.5,3.6C1012.7,402,1015.8,401,1018.1,398.4 M1113.7,253.5c-2.6-2.5-3.9-5.5-3.9-9c0-3.4,1.4-6.3,3.8-8.7
	c2.4-2.3,5.4-4,8.9-4c3.4,0,6.3,1.6,8.7,4c2.4,2.4,4,5.3,4,8.7c0,3.4-1.6,6.4-3.8,8.9c-2.4,2.5-5.4,3.7-8.8,3.7
	C1119.1,257.2,1116.1,256,1113.7,253.5 M1151.6,273c0,3.4-1.4,6.3-3.6,8.7c-2.4,2.5-5.3,3.9-8.8,3.9c-3.4,0-6.6-1-9-3.6
	c-2.4-2.5-3.6-5.6-3.6-9.1c0-3.3,1.4-6.2,3.6-8.7c2.4-2.7,5.5-4,9.1-4c3.4,0,6.4,1.2,8.8,3.6C1150.4,266.4,1151.6,269.5,1151.6,273
	 M1119,273c0,3.4-1.1,6.4-3.5,8.8c-2.5,2.4-5.5,3.9-8.9,3.9c-3.4,0-6.4-1.1-8.7-3.6c-2.6-2.5-3.9-5.5-3.9-9c0-3.3,1.4-6.2,3.6-8.7
	c2.4-2.7,5.5-4,9.1-4c3.5,0,6.5,1.2,8.9,3.6C1117.9,266.4,1119,269.5,1119,273 M1275.9,248.5l0-0.2c-0.3-1.7-0.6-4.5-1.3-6l-0.1-0.2
	c-2-4.3-6-6.2-10.7-6.2c-4.8,0-8.7,2-10.9,6.3c-1,2.1-1.6,4.2-1.6,6.6v105.6l0,0.2c0.3,1.6,0.8,4.1,1.6,5.5c2.2,4,6.4,5.4,10.8,5.4
	c4.8,0,8.7-1.9,10.6-6.5c0.9-2.1,1.3-4.5,1.5-6.7L1275.9,248.5z M802.7,125.9l0.1-0.1c2.4-2.3,3.5-5.3,3.5-8.6
	c0-3.4-1.4-6.3-3.6-8.7c-2.3-2.5-5.2-3.7-8.6-3.7c-3.4,0-6.3,1.4-8.7,4c-2.4,2.3-3.8,5.1-3.8,8.5c0,3.4,1.4,6.3,3.9,8.7
	c2.3,2.4,5.2,3.6,8.5,3.6C797.4,129.4,800.4,128.5,802.7,125.9 M806.1,161.5v35.8h174.1c2.8,0,5.4-1,7.8-2.4
	c3.7-2.1,5.2-5.5,5.2-9.6c0-3.1-0.4-7-2.9-9.2c-0.7-0.6-1.6-1.1-2.6-1.4c-1.3-0.4-2.5-0.7-3.9-0.8c-0.8-0.1-1.7-0.2-2.6-0.4l-0.2,0
	H870c-1.5,0-3.2-0.3-4.7-0.6c-3.4-0.5-6.5-1.6-9.3-3.6c-4.7-3.3-6.6-8.2-6.6-13.8c0-5.5,1.9-10.4,5.4-14.7c1.5-1.8,3.8-3.4,5.7-4.7
	l43.6-26.6l0.1-0.1c2.2-0.9,5.7-2.4,8.1-2.4c0.4,0,0.9,0.1,1.3,0.2l0.1,0l0.1,0c0.8,0.1,1.5,0.2,2.3,0.4c1.1,0.2,1.9,0.8,2.7,1.4
	c1,0.8,1.8,1.9,2.4,3c1.3,1.9,1.9,3.9,1.9,6.1c0,2.8-1.1,5.3-2.8,7.6c-0.7,0.9-1.6,1.7-2.5,2.5l-0.2,0.1l-37,21.6h104
	c4.1,0,8.1,0.9,11.9,2.5c6.8,2.9,12,7.6,15.7,14c2.3,4,4.5,8.9,4.5,13.6c0,8.9-1.6,17.7-6,25.6c-4.8,8.6-12.2,13.7-21.9,15.2l-0.2,0
	H806.1v10.1c0,3.4-0.2,6.9-0.9,10.2c-0.5,2.5-1.3,5.2-2.7,7.3c-0.9,1.3-1.8,2.6-2.8,3.7c-1,1.1-2.1,1.9-3.4,2.6l-1.7,0.8l-0.2,0.1
	c-1.7,0.5-3.6,1-5.4,1h-2.7h-1.6h-1h-1c-7.7,0-14.7-2.7-14.7-11.5c0-3,0.6-6.3,2.8-8.6c1.7-1.7,3.7-2.9,6.2-3.1
	c1.3-0.1,2.6-0.4,3.7-1.1c0.8-0.5,1-1.3,1-2.2v-1v-0.8l-0.2-66.6c0-3.3,0.8-6.3,2.6-9c2.2-3.3,5.8-4.4,9.6-4.4h0.2
	c1.9,0,3.9,0.2,5.6,1c1.9,0.8,3.2,2.2,4.1,4c0.6,1.3,1.2,2.6,1.5,4c0.3,1.4,0.6,2.8,0.9,4.2L806.1,161.5z M1078.5,161.5v35.8h132.3
	l-0.4-1.6c-0.8-3.8-1.5-7.7-1.5-11.6c0-4.2,0.7-8.3,2-12.3c1.5-4.7,4.4-8.7,8-12.1c4.1-3.8,8.7-6.8,14-8.5c4.1-1.2,8.3-2,12.6-2
	c2,0,4.1,0.1,6.1,0.6c6.3,1.1,11.8,3.8,16.4,8.2c3.9,3.7,6.8,8.3,8.7,13.4c1.4,3.9,2.4,8.1,2.4,12.3c0,6.3-1.8,12.2-4.8,17.7
	c-2.8,5.5-6.9,9.9-12.2,13c-3.3,2.1-7.2,3.3-10.9,4.3c-4.8,1.2-9.8,1.8-14.8,2h-157.9v10.1c0,3.4-0.2,6.9-0.9,10.2
	c-0.5,2.5-1.3,5.2-2.7,7.3c-0.9,1.3-1.8,2.6-2.8,3.7c-1,1.1-2.1,1.9-3.4,2.6l-1.7,0.8l-0.2,0.1c-1.7,0.5-3.6,1-5.4,1h-2.7h-1.6h-1
	h-1c-7.7,0-14.7-2.7-14.7-11.5c0-3,0.6-6.3,2.8-8.6c1.7-1.7,3.7-2.9,6.2-3.1c1.3-0.1,2.6-0.4,3.7-1.1c0.8-0.5,1-1.3,1-2.2v-1v-0.8
	l-0.2-66.6c0-3.3,0.8-6.3,2.6-9c2.2-3.3,5.8-4.4,9.6-4.4h0.2c1.9,0,3.9,0.2,5.6,1c1.9,0.8,3.2,2.2,4.1,4c0.6,1.3,1.2,2.6,1.5,4
	c0.3,1.4,0.6,2.8,0.9,4.2L1078.5,161.5z M1255.8,184.1c0-3.4-1.2-6.3-3.6-8.8c-2.4-2.4-5.3-3.6-8.8-3.6c-3.4,0-6.4,1.2-8.8,3.6
	c-2.4,2.4-3.6,5.3-3.6,8.8c0,3.4,1.2,6.2,3.6,8.6c2.4,2.4,5.3,3.6,8.8,3.6c3.4,0,6.2-1.2,8.8-3.4
	C1254.8,190.6,1255.8,187.5,1255.8,184.1 M871.7,508.6c-2.3-2.4-5.2-3.7-8.6-3.7c-3.4,0-6.4,1.2-8.8,3.7c-2.5,2.4-4,5.4-4,8.9
	c0,3.4,1.5,6.3,3.9,8.6c2.5,2.3,5.5,3.6,8.9,3.6c3.3,0,6.4-1,8.7-3.6l0.1-0.1c2.5-2.3,3.7-5.2,3.7-8.6
	C875.6,514.1,874.3,511,871.7,508.6 M1049.2,434.7v41.9c0,0.6-0.1,1.2-0.1,1.8c-0.1,1.3-0.6,2.7-1.1,3.9c-0.6,1.8-1.5,3.4-2.6,4.9
	c-1.3,1.8-3.2,3.2-5.2,4.2c-2.5,1.3-5.2,1.8-7.9,1.8h-41.5c-5.1,0-9.4-2.6-13-6.2l-65.5-65.5l-0.1-0.1c-2.4-1.7-5.7-3.6-8.7-3.6
	c-1.3,0-2.6,0.3-3.8,0.8c-1.5,0.7-2.7,1.7-3.9,2.7l-0.1,0.1l0,0.1c-1,1.1-1.8,2.3-2.4,3.6c-0.5,1-0.7,2.7-0.7,3.8
	c0,1.9,0.4,3.8,1.3,5.4l1.6,2.5l39.6,38.8l0.1,0.1c1.7,2.3,2.9,4.9,2.9,7.8c0,2.8-1.1,5.2-3.3,7c-2.3,2-5.3,2.6-8.3,2.6h-1.3H796.5
	c-3,0-6.1-0.6-9-1.4c-6.4-1.6-12.3-4.5-16.9-9.4c-6.8-7.2-9.1-16.7-9.1-26.4c0-8.7,2.6-16.6,9-22.7c4.7-4.4,10.5-7,16.7-8.5
	c3.1-0.8,6.2-1.2,9.3-1.2h3l0.2,0c1.7,0.3,3.4,0.6,5,1.3l0.1,0.1l0.1,0.1c3.9,2.2,5.5,5.9,5.5,10.3c0,4.2-1.8,7.7-5.4,9.9
	c-1.4,0.8-3.8,1.2-5.4,1.4l-0.2,0h-1.7c-2.4,0-5.3,0.3-7.3,1.6c-3.6,2.2-5,5.5-5,9.7c0,4.1,1.2,7.8,4.9,10c2.4,1.4,4.9,2,7.7,2
	l98-0.2l-18.3-17.9l0,0c-1.6-1.9-3.2-4-4.4-6.2c-1.5-2.5-2.6-5.1-3.4-7.9c-0.8-2.8-1.3-5.7-1.3-8.6c0-4,0.9-7.9,2.5-11.7
	c2.1-5,5.4-9.4,9.3-13.1c3.5-3.3,7.6-6.2,12-8.2c3.6-1.6,7.4-2.3,11.3-2.3c4.5,0,8.8,1,12.9,2.9c3,1.4,6.8,3.3,9.2,5.6l63.3,63.3
	c1,0.9,1.9,1.8,3,2.5c0.7,0.5,1.6,0.8,2.4,1.1c1.3,0.4,2.5,0.6,3.8,0.6h21.2c4.2,0,6.3-1.5,6.3-5.9v-29.2l0-0.1
	c0.3-1.8,0.6-4.1,1.4-5.7c2.2-4,5.7-6,10.3-6c4.7,0,8.1,2.1,10.2,6.3c0.7,1.7,1.1,3.6,1.4,5.4L1049.2,434.7z M1030.4,526.3l0.1-0.1
	c2.4-2.3,3.5-5.3,3.5-8.6c0-3.4-1.4-6.3-3.6-8.7c-2.3-2.5-5.2-3.7-8.6-3.7c-3.4,0-6.3,1.4-8.7,4c-2.4,2.3-3.8,5.1-3.8,8.5
	c0,3.4,1.4,6.3,3.9,8.7c2.3,2.4,5.2,3.6,8.5,3.6C1025,529.9,1028.1,528.9,1030.4,526.3 M1129.9,438.4l0,0.1
	c-1.2,3.7-2.4,7.9-2.6,11.7c0,0.8,0,1.6,0,2.4c0,4,0.6,7.9,1.8,11.7l2,5.5h-25.7v-35.8l0-0.2c-0.3-1.4-0.6-2.8-0.9-4.2
	c-0.3-1.4-0.9-2.7-1.5-3.9c-0.9-1.8-2.2-3.2-4.1-4c-1.7-0.8-3.7-1-5.6-1h-0.2c-3.8,0-7.4,1.1-9.6,4.4c-1.8,2.7-2.7,5.8-2.6,9
	l0.2,66.6v0.8v1c0,0.9-0.2,1.7-1,2.2c-1.1,0.7-2.4,1-3.7,1.1c-2.4,0.2-4.5,1.4-6.2,3.1c-2.2,2.3-2.8,5.5-2.8,8.6
	c0,8.8,7,11.5,14.7,11.5h1h1h1.6h2.7c1.7,0,3.7-0.5,5.4-1l0.2-0.1l1.7-0.8c1.3-0.7,2.4-1.5,3.4-2.6c1-1.1,2-2.4,2.8-3.7
	c1.4-2.1,2.2-4.8,2.7-7.3c0.7-3.4,0.9-6.8,0.9-10.2v-10.1h103.3c6.7,0,14.8-0.9,20.2-5.3c5.6-4.5,7.3-11.5,7.3-18.4v-75.4l0-0.2
	c-0.4-1.9-0.8-3.8-1.4-5.6l-0.1-0.3l-0.2-0.3c-2.4-3.9-6.2-5.4-10.6-5.4c-4.6,0-8.6,1.8-10.8,5.9c-0.8,1.6-1.2,4.1-1.4,5.9l0,0.1
	v70.4c0,1.2-0.2,2.9-1.1,3.9c-0.8,0.8-2.3,1.2-3.4,1.3l-0.1,0h-47.8l-0.4-0.3c-2.1-1.7-4.1-3.4-6.1-5.3c-2.8-3.1-4.2-6.7-4.2-10.9
	c0-3.3,0.6-6.6,2.6-9.3c2.8-3.7,6.8-5,11.3-5c2.2,0,4.3,0.4,6.2,1.6c1.3,0.9,2.7,2.1,3.4,3.5c0.9,1.8,1.8,3.7,2.7,5.5
	c0.8,1.6,2,3.5,3.5,4.6c1.9,1.6,4.1,2.5,6.6,2.5c1.7,0,3.4-0.5,5-1.1c4-1.6,6.2-4.8,6.5-9.1l0-0.1l0-0.1c0-1.9-0.3-3.8-0.9-5.6
	c-1.6-5-4.1-9.6-7.7-13.5c-3.5-3.8-7.6-6.7-12.5-8.4c-3.7-1.3-7.5-1.8-11.3-1.8c-1.8,0-3.6,0.1-5.4,0.4c-7.1,1.5-14.6,4.2-20,9.3
	C1134.9,430.1,1131.8,433.9,1129.9,438.4L1129.9,438.4z M1278.7,393.9l0-0.2c-0.3-1.7-0.6-4.5-1.3-6l-0.1-0.2c-2-4.3-6-6.3-10.7-6.3
	c-4.8,0-8.7,2-10.9,6.3c-1,2.1-1.6,4.2-1.6,6.6v88.1l0,0.2c0.3,1.6,0.8,4.1,1.6,5.5c2.2,4,6.4,5.4,10.8,5.4c4.8,0,8.7-1.9,10.6-6.5
	c0.9-2.1,1.4-4.5,1.5-6.7L1278.7,393.9z"/>
<path fill-rule="evenodd" clip-rule="evenodd" fill="#FFFFFF" d="M506.1,244.8v169.9c1.4-3,2.8-6.1,4.1-9.1
	c3.3-8.1,6.1-16.4,8.4-24.8c1.1-4.1,2-8.1,2.8-12.3c1.6-8.2,2.7-16.5,3.3-24.8c0.1-1,0.1-1.9,0.2-2.8l0-22.2
	c-0.2-4.1-0.6-8.2-1.1-12.3c-0.5-4.2-1.1-8.3-1.9-12.4c-1.5-8.4-3.6-16.7-6.2-24.8c-1.3-4.1-2.7-8.1-4.3-12.1
	C509.8,253,508,248.9,506.1,244.8 M298.4,483.9v-42.5h19v44.9c3.2,0.2,6.4,0.3,9.6,0.3c4.1,0,8.1-0.2,12.2-0.5
	c4.1-0.3,8.3-0.8,12.3-1.4c7.6-1.2,15.1-3,22.5-5.3v-94.6h-37.8v-18.9h151.1v-18.8H317.5v56.4h37.8v62.1l-2.6,0.5
	c-4.3,0.8-8.6,1.4-12.9,1.8l-3.5,0.3v-45.6h-37.8v-37.8h-18.8v94.4c0.1,0,0.3,0.1,0.4,0.1C286.1,481.2,292.2,482.7,298.4,483.9
	 M157.8,432.8h27.7v-85.7h-18.8v65.1l-6.2-15.4c-1.9-4.7-3.6-9.4-5.1-14.3c-1.3-4.2-2.4-8.4-3.4-12.7c-1.7-7.5-2.9-15.1-3.7-22.7
	h-18.7c0.6,7.2,1.6,14.3,3,21.4c0.8,4.1,1.8,8.2,2.8,12.3c2.2,8.4,5,16.7,8.4,24.8c1.7,4.2,3.6,8.3,5.6,12.4
	c1.4,2.8,2.9,5.6,4.4,8.4C155.3,428.5,156.5,430.7,157.8,432.8 M487.3,446.2c-2.2,3.1-4.5,6.1-6.9,9c-5.4,6.5-11.1,12.7-17.3,18.5
	c-2.3,2.1-4.6,4.2-6.9,6.3c-1.8,1.5-3.6,3.1-5.5,4.5c-3.3,2.6-6.6,5.1-10.1,7.6c-3.2,2.3-6.5,4.4-9.9,6.5v-95h-19v105.3
	c-6.3,3-12.8,5.7-19.4,8c-1.2,0.4-2.4,0.8-3.6,1.2c-4,1.3-8.1,2.5-12.3,3.6c-8.2,2.1-16.4,3.7-24.8,4.7c-4.1,0.5-8.3,0.9-12.4,1.1
	c-4.1,0.2-8.1,0.4-12.2,0.4c-4.2,0-8.4-0.1-12.6-0.4c-4.1-0.3-8.3-0.7-12.4-1.2c-7.5-1-15-2.3-22.4-4.1v-19.3
	c7.1,1.9,14.3,3.4,21.5,4.5c4.3,0.6,8.5,1.1,12.8,1.4c4.3,0.3,8.7,0.5,13,0.5c4.2,0,8.4-0.1,12.6-0.4c4.3-0.3,8.6-0.8,12.8-1.4
	c8.7-1.2,17.3-3.1,25.7-5.6c3.9-1.2,7.8-2.5,11.6-3.9h3.1V384.8h94.4V446.2z M467.9,440.9c-1.5,1.9-3.1,3.9-4.7,5.7
	c-2.6,3-5.3,6-8.1,8.8l-5.5,5.6v-57.6h19v36.5L467.9,440.9z M355.3,177.3H374v-40.1c-7.4-1.8-14.9-3.2-22.4-4.1
	c-4.1-0.5-8.3-0.9-12.4-1.1c-4.1-0.3-8.1-0.4-12.2-0.4c-3.2,0-6.4,0.1-9.6,0.2v64.4h-19v-62.5c-6.3,0.9-12.6,2.1-18.8,3.7v134.1
	h-37.5v18.8h56.3V215h19v75.2h18.8V215h75.5v-64.4c-3.4-1.6-6.8-3.1-10.3-4.5c-2.8-1.1-5.6-2.2-8.4-3.2v53.4h-56.7v-44.1h19V177.3z
	 M166.8,213.3c4.6-6.3,9.6-12.4,14.9-18.1c3-3.2,6.1-6.4,9.3-9.4c1-1,2-1.9,3.1-2.8c9.3-8.4,18.7-15.5,29.2-21.9v35.2h19v-45.5
	c3.5-1.7,7-3.2,10.6-4.7c2.7-1.1,5.4-2.1,8.2-3.1v72h-56.5v-14.5l-5.1,3.6c-5.1,3.6-10.2,9.3-13.4,14.6l-0.5,0.8v70.8h-52.6
	c1.4-7.1,3.3-14.1,5.5-21c1.3-4.1,2.7-8.1,4.3-12.1c1.6-4.2,3.4-8.3,5.3-12.3v26.7h18.7V213.3z M185.5,451.8l-16.3-0.1
	c4.4,5.9,10.7,12.8,16.3,17.7V451.8z M222.3,497.9c1.9,1.2,3.8,2.3,5.7,3.4c4,2.3,8.1,4.5,12.3,6.6c6.7,3.3,13.6,6.1,20.6,8.6v-18.6
	H222.3z M242.1,234h18.8v18.8h-18.8V234z M223.2,234v226.4h19V309.3h113.1v-37.8H374v37.8h18.9v-37.8h18.8v37.8h19v-37.8h18.8v37.8
	h19V191.1c1.3,1.3,2.6,2.7,3.9,4.1c5.3,5.7,10.3,11.8,14.9,18.1v114.7H260.9v151.1h-56.5V234H223.2z M148,328.1v-18.8h-18
	c-0.3,3.1-0.6,6.2-0.7,9.3v9.4H148z M185.5,309.3h-18.8v18.8h18.8V309.3z M449.5,174c-6-4.7-12.3-9.1-18.8-13.1V215h18.8V174z
	 M430.8,252.7h18.8V234h-18.8V252.7z M392.9,234h18.8v18.8h-18.8V234z M355.3,234H374v18.8h-18.8V234z M279.6,347.1h18.8v18.8h-18.8
	V347.1z"/>
</svg>
