<?xml version="1.0" encoding="utf-8"?>
<!-- Generator: Adobe Illustrator 16.0.0, SVG Export Plug-In . SVG Version: 6.00 Build 0)  -->
<!DOCTYPE svg PUBLIC "-//W3C//DTD SVG 1.1//EN" "http://www.w3.org/Graphics/SVG/1.1/DTD/svg11.dtd">
<svg version="1.1" id="Layer_1" xmlns="http://www.w3.org/2000/svg" xmlns:xlink="http://www.w3.org/1999/xlink" x="0px" y="0px"
	 width="100px" height="100px" viewBox="0 0 100 100" enable-background="new 0 0 100 100" xml:space="preserve">
<g>
	<g>
		<linearGradient id="SVGID_1_" gradientUnits="userSpaceOnUse" x1="98.0107" y1="100.3232" x2="-4.4729" y2="-2.1604">
			<stop  offset="0" style="stop-color:#ED7D21"/>
			<stop  offset="1" style="stop-color:#C71F39"/>
		</linearGradient>
		<path fill="url(#SVGID_1_)" d="M81.216,57.357l-3.148-3.148c-1.285-1.285-3.377-1.285-4.663,0L56.4,71.213l-2.345,8.596
			l-0.572,0.572c-0.429,0.43-0.43,1.121-0.006,1.553l-0.007,0.021l0.021-0.006c0.214,0.213,0.493,0.318,0.772,0.318
			c0.283,0,0.566-0.107,0.78-0.322l0.575-0.574l8.595-2.344l17.003-17.006C82.504,60.734,82.504,58.643,81.216,57.357z
			 M58.952,71.787l11.316-11.316l4.688,4.686L63.64,76.477L58.952,71.787z M57.953,73.916l3.559,3.557l-4.892,1.334L57.953,73.916z
			 M79.654,60.461l-3.137,3.135l-4.688-4.688l3.137-3.135c0.425-0.426,1.116-0.426,1.54-0.004l3.148,3.15
			C80.079,59.344,80.079,60.035,79.654,60.461z"/>
	</g>
	<linearGradient id="SVGID_2_" gradientUnits="userSpaceOnUse" x1="94.9658" y1="103.3682" x2="-7.5178" y2="0.8845">
		<stop  offset="0" style="stop-color:#ED7D21"/>
		<stop  offset="1" style="stop-color:#C71F39"/>
	</linearGradient>
	<path fill="url(#SVGID_2_)" d="M52.096,54.746c-0.002-0.004-0.071-0.088-0.183-0.234c-0.006-0.008-0.013-0.016-0.021-0.025
		c-0.059-0.076-0.127-0.17-0.206-0.277c-0.001-0.002-0.002-0.002-0.002-0.004c-0.165-0.23-0.372-0.527-0.603-0.885
		c-0.005-0.01-0.01-0.018-0.015-0.025c-0.107-0.17-0.224-0.352-0.341-0.549c-0.009-0.014-0.017-0.029-0.027-0.043
		c-0.249-0.418-0.515-0.894-0.778-1.418l-0.001-0.002c-0.141-0.281-0.28-0.58-0.417-0.888l0,0c-0.019-0.042-0.039-0.085-0.058-0.127
		l0,0c-0.061-0.139-0.122-0.283-0.183-0.433c-0.023-0.054-0.045-0.11-0.067-0.165c-0.058-0.146-0.116-0.292-0.178-0.458
		c-0.113-0.301-0.22-0.614-0.319-0.938l-0.063-0.197c-0.007-0.021-0.015-0.043-0.021-0.066c-0.103-0.35-0.201-0.706-0.286-1.074
		l-0.101-0.437l-0.377-0.243c-0.641-0.415-1.022-1.108-1.022-1.854v-4.419c0-0.621,0.262-1.199,0.739-1.631l0.365-0.329v-6.881
		v-0.391l-0.03-0.022c-0.037-0.798,0.011-3.243,1.793-5.277c1.831-2.088,4.956-3.146,9.286-3.146c4.314,0,7.433,1.051,9.265,3.124
		c2.151,2.432,1.795,5.543,1.793,5.57l-0.009,7.025l0.364,0.329c0.478,0.432,0.74,1.01,0.74,1.631v4.419
		c0,0.964-0.632,1.809-1.57,2.098c-0.585,0.179-0.91,0.799-0.731,1.382c0.18,0.581,0.797,0.906,1.381,0.73
		c1.872-0.578,3.13-2.271,3.13-4.21v-4.419c0-1.064-0.397-2.095-1.104-2.901v-5.878c0.061-0.607,0.304-4.225-2.313-7.209
		c-2.269-2.589-5.952-3.9-10.946-3.9c-4.996,0-8.678,1.313-10.948,3.9c-1.584,1.809-2.117,3.846-2.28,5.309
		c-1.893-0.98-4.125-1.475-6.659-1.475c-11.479,0-12.147,9.784-12.153,9.944v5.058c-0.717,0.781-1.105,1.681-1.105,2.574v3.817
		c0,1.191,0.534,2.303,1.449,3.054c0.91,3.438,3.152,6.033,4.025,6.943v3.033c0,0.867-0.473,1.666-1.294,2.115l-7.351,4.611
		c-2.814,1.533-4.564,4.48-4.564,7.688v4.195h15.468h2.211h12.153c0.609,0,1.104-0.494,1.104-1.105s-0.495-1.105-1.104-1.105H35.779
		v-2.471c0-2.842,1.548-5.453,4.043-6.811l9.855-5.377c1.65-0.902,2.675-2.627,2.675-4.504v-4.439v-0.002l-0.216-0.258
		L52.096,54.746z M50.143,59.492c0,1.068-0.584,2.049-1.521,2.563l-2.924,1.594l-0.717,0.393l-6.216,3.389
		c-3.205,1.75-5.194,5.102-5.194,8.752v2.473h-13.26v-1.986c0-2.396,1.309-4.6,3.471-5.781l7.349-4.609
		c1.475-0.805,2.389-2.344,2.389-4.023v-3.965l-0.352-0.33c-0.029-0.027-2.965-2.801-3.832-6.58l-0.1-0.438L28.857,50.7
		c-0.51-0.329-0.813-0.88-0.813-1.474v-3.817c0-0.398,0.27-0.871,0.741-1.296l0.363-0.328l-0.002-5.944
		c0.02-0.318,0.596-7.799,9.946-7.799c2.644,0,4.871,0.61,6.629,1.816v5.227c-0.707,0.805-1.104,1.835-1.104,2.9v4.42
		c0,0.336,0.038,0.666,0.11,0.986c0.031,0.129,0.09,0.246,0.132,0.37c0.06,0.186,0.109,0.377,0.194,0.553
		c0.001,0.002,0.001,0.002,0.003,0.005c0.283,0.583,0.694,1.105,1.214,1.521c0.007,0.021,0.013,0.04,0.017,0.059
		c0.067,0.253,0.138,0.505,0.213,0.751l0.09,0.29c0.015,0.05,0.033,0.102,0.05,0.153c0.039,0.12,0.077,0.239,0.116,0.355
		c0.066,0.194,0.136,0.394,0.217,0.612c0.033,0.092,0.07,0.172,0.107,0.262c0.091,0.231,0.18,0.454,0.275,0.675
		c0.023,0.051,0.044,0.11,0.067,0.163l0.062,0.139c0.028,0.063,0.058,0.121,0.087,0.184c0.107,0.237,0.215,0.467,0.324,0.688
		c0.019,0.035,0.035,0.074,0.052,0.109c0.07,0.139,0.14,0.27,0.21,0.4c0.119,0.229,0.235,0.443,0.354,0.65
		c0.057,0.102,0.113,0.201,0.17,0.297c0.159,0.273,0.31,0.523,0.458,0.754c0.031,0.051,0.063,0.102,0.094,0.15
		c0.267,0.412,0.5,0.75,0.691,1.01c0.05,0.07,0.096,0.131,0.139,0.189c0.023,0.031,0.057,0.078,0.077,0.107v3.656H50.143z"/>
	<g>
		<linearGradient id="SVGID_3_" gradientUnits="userSpaceOnUse" x1="99.6504" y1="98.6836" x2="-2.8333" y2="-3.8">
			<stop  offset="0" style="stop-color:#ED7D21"/>
			<stop  offset="1" style="stop-color:#C71F39"/>
		</linearGradient>
		<polygon fill="url(#SVGID_3_)" points="65.883,72.902 64.585,71.623 72.529,63.576 73.827,64.855 		"/>
	</g>
	<g>
		<linearGradient id="SVGID_4_" gradientUnits="userSpaceOnUse" x1="97.0977" y1="101.2363" x2="-5.386" y2="-1.2473">
			<stop  offset="0" style="stop-color:#ED7D21"/>
			<stop  offset="1" style="stop-color:#C71F39"/>
		</linearGradient>
		<circle fill="url(#SVGID_4_)" cx="24.374" cy="28.512" r="1.866"/>
		<linearGradient id="SVGID_5_" gradientUnits="userSpaceOnUse" x1="97.0977" y1="101.2363" x2="-5.386" y2="-1.2473">
			<stop  offset="0" style="stop-color:#ED7D21"/>
			<stop  offset="1" style="stop-color:#C71F39"/>
		</linearGradient>
		<path fill="url(#SVGID_5_)" d="M24.373,30.628c-1.166,0-2.115-0.949-2.115-2.116c0-1.167,0.949-2.116,2.115-2.116
			c1.167,0,2.116,0.949,2.116,2.116C26.489,29.679,25.54,30.628,24.373,30.628z M24.373,26.896c-0.891,0-1.615,0.725-1.615,1.616
			s0.725,1.616,1.615,1.616c0.892,0,1.616-0.725,1.616-1.616S25.265,26.896,24.373,26.896z"/>
	</g>
	<g>
		<linearGradient id="SVGID_6_" gradientUnits="userSpaceOnUse" x1="116.167" y1="82.167" x2="13.6833" y2="-20.3167">
			<stop  offset="0" style="stop-color:#ED7D21"/>
			<stop  offset="1" style="stop-color:#C71F39"/>
		</linearGradient>
		<circle fill="url(#SVGID_6_)" cx="84.482" cy="50.481" r="1.866"/>
		<linearGradient id="SVGID_7_" gradientUnits="userSpaceOnUse" x1="116.167" y1="82.167" x2="13.6833" y2="-20.3167">
			<stop  offset="0" style="stop-color:#ED7D21"/>
			<stop  offset="1" style="stop-color:#C71F39"/>
		</linearGradient>
		<path fill="url(#SVGID_7_)" d="M84.482,52.598c-1.167,0-2.116-0.949-2.116-2.117c0-1.167,0.949-2.115,2.116-2.115
			s2.116,0.949,2.116,2.115C86.599,51.648,85.649,52.598,84.482,52.598z M84.482,48.866c-0.892,0-1.616,0.725-1.616,1.615
			c0,0.891,0.725,1.617,1.616,1.617s1.616-0.726,1.616-1.617C86.099,49.59,85.374,48.866,84.482,48.866z"/>
	</g>
	<g>
		<linearGradient id="SVGID_8_" gradientUnits="userSpaceOnUse" x1="86.0215" y1="112.3125" x2="-16.4622" y2="9.8289">
			<stop  offset="0" style="stop-color:#ED7D21"/>
			<stop  offset="1" style="stop-color:#C71F39"/>
		</linearGradient>
		<path fill="url(#SVGID_8_)" d="M13.581,42.518c-0.276,0-0.5-0.224-0.5-0.5v-4.292c0-0.276,0.224-0.5,0.5-0.5s0.5,0.224,0.5,0.5
			v4.292C14.081,42.294,13.857,42.518,13.581,42.518z"/>
	</g>
	<g>
		<linearGradient id="SVGID_9_" gradientUnits="userSpaceOnUse" x1="86.0225" y1="112.3115" x2="-16.4612" y2="9.8279">
			<stop  offset="0" style="stop-color:#ED7D21"/>
			<stop  offset="1" style="stop-color:#C71F39"/>
		</linearGradient>
		<path fill="url(#SVGID_9_)" d="M15.728,40.372h-4.291c-0.276,0-0.5-0.224-0.5-0.5s0.224-0.5,0.5-0.5h4.291
			c0.276,0,0.5,0.224,0.5,0.5S16.004,40.372,15.728,40.372z"/>
	</g>
	<g>
		<linearGradient id="SVGID_10_" gradientUnits="userSpaceOnUse" x1="74.5732" y1="123.7607" x2="-27.9104" y2="21.2771">
			<stop  offset="0" style="stop-color:#ED7D21"/>
			<stop  offset="1" style="stop-color:#C71F39"/>
		</linearGradient>
		<path fill="url(#SVGID_10_)" d="M16.588,59.506H3.049c-0.276,0-0.5-0.224-0.5-0.5s0.224-0.5,0.5-0.5h13.539
			c0.276,0,0.5,0.224,0.5,0.5S16.864,59.506,16.588,59.506z"/>
	</g>
	<g>
		<linearGradient id="SVGID_11_" gradientUnits="userSpaceOnUse" x1="76.8682" y1="121.4658" x2="-25.6155" y2="18.9822">
			<stop  offset="0" style="stop-color:#ED7D21"/>
			<stop  offset="1" style="stop-color:#C71F39"/>
		</linearGradient>
		<path fill="url(#SVGID_11_)" d="M16.794,57.018H7.047c-0.276,0-0.5-0.224-0.5-0.5s0.224-0.5,0.5-0.5h9.747
			c0.276,0,0.5,0.224,0.5,0.5S17.07,57.018,16.794,57.018z"/>
	</g>
	<g>
		<linearGradient id="SVGID_12_" gradientUnits="userSpaceOnUse" x1="126.4844" y1="71.8496" x2="24.0007" y2="-30.634">
			<stop  offset="0" style="stop-color:#ED7D21"/>
			<stop  offset="1" style="stop-color:#C71F39"/>
		</linearGradient>
		<path fill="url(#SVGID_12_)" d="M96.951,36.046H83.412c-0.276,0-0.5-0.224-0.5-0.5s0.224-0.5,0.5-0.5h13.539
			c0.276,0,0.5,0.224,0.5,0.5S97.228,36.046,96.951,36.046z"/>
	</g>
	<g>
		<linearGradient id="SVGID_13_" gradientUnits="userSpaceOnUse" x1="126.6777" y1="71.6563" x2="24.1941" y2="-30.8274">
			<stop  offset="0" style="stop-color:#ED7D21"/>
			<stop  offset="1" style="stop-color:#C71F39"/>
		</linearGradient>
		<path fill="url(#SVGID_13_)" d="M92.953,33.557h-9.747c-0.276,0-0.5-0.224-0.5-0.5s0.224-0.5,0.5-0.5h9.747
			c0.276,0,0.5,0.224,0.5,0.5S93.229,33.557,92.953,33.557z"/>
	</g>
</g>
</svg>
