<?xml version="1.0" encoding="utf-8"?>
<!-- Generator: Adobe Illustrator 16.0.0, SVG Export Plug-In . SVG Version: 6.00 Build 0)  -->
<!DOCTYPE svg PUBLIC "-//W3C//DTD SVG 1.1//EN" "http://www.w3.org/Graphics/SVG/1.1/DTD/svg11.dtd">
<svg version="1.1" id="Layer_1" xmlns="http://www.w3.org/2000/svg" xmlns:xlink="http://www.w3.org/1999/xlink" x="0px" y="0px"
	 width="100px" height="100px" viewBox="0 0 100 100" enable-background="new 0 0 100 100" xml:space="preserve">
<g>
	<g>
		<g>
			<g>
				<g>
					<g>
						<linearGradient id="SVGID_1_" gradientUnits="userSpaceOnUse" x1="99.6533" y1="101.0986" x2="0.6218" y2="2.0671">
							<stop  offset="0" style="stop-color:#ED7D21"/>
							<stop  offset="1" style="stop-color:#C71F39"/>
						</linearGradient>
						<path fill="url(#SVGID_1_)" d="M79.991,55.813H69.443v-2.11h-2.108v2.11h-1.643c-0.991-3.576-3.199-6.642-6.162-8.724
							l3.146-5.032c0.146,0.021,0.291,0.045,0.441,0.045c0.852,0,1.621-0.341,2.19-0.89l5.23,2.615
							c-0.016,0.128-0.039,0.253-0.039,0.383c0,1.744,1.421,3.165,3.165,3.165c1.745,0,3.163-1.42,3.163-3.165
							c0-0.859-0.348-1.639-0.906-2.208l4.766-10.483c0.121,0.015,0.236,0.037,0.358,0.037c1.745,0,3.165-1.419,3.165-3.164
							c0-1.744-1.42-3.164-3.165-3.164c-1.744,0-3.162,1.42-3.162,3.164c0,0.859,0.347,1.639,0.905,2.21l-4.766,10.482
							c-0.119-0.015-0.235-0.037-0.358-0.037c-0.851,0-1.621,0.343-2.191,0.89l-5.23-2.615c0.017-0.128,0.04-0.253,0.04-0.384
							c0-1.744-1.42-3.163-3.165-3.163s-3.163,1.419-3.163,3.163c0,0.827,0.325,1.575,0.847,2.139l-3.072,4.917
							c-2.18-1.132-4.647-1.783-7.267-1.783c-0.717,0-1.417,0.065-2.108,0.157V21.011h4.219v-2.109h-4.219H33.589h-4.218v2.109
							h4.218v27.125l-13.41,22.028c-0.886,1.458-1.354,3.128-1.354,4.834c0,5.123,4.168,9.291,9.291,9.291h25.711
							c5.122,0,9.291-4.168,9.291-9.291c0-1.485-0.375-2.937-1.053-4.251c1.687-1.823,2.945-4.04,3.628-6.498h1.643v2.11h2.108
							v-2.11h10.548c2.327,0,4.219-1.892,4.219-4.217C84.21,57.704,82.318,55.813,79.991,55.813z M81.045,27.338
							c0.582,0,1.056,0.473,1.056,1.055c0,0.582-0.474,1.055-1.056,1.055c-0.581,0-1.054-0.473-1.054-1.055
							C79.991,27.812,80.464,27.338,81.045,27.338z M73.664,43.157c0.582,0,1.055,0.473,1.055,1.055
							c0,0.583-0.473,1.054-1.055,1.054c-0.583,0-1.056-0.472-1.056-1.054C72.608,43.63,73.081,43.157,73.664,43.157z
							 M63.117,37.885c0.582,0,1.054,0.472,1.054,1.054c0,0.583-0.472,1.054-1.054,1.054s-1.055-0.472-1.055-1.054
							C62.063,38.357,62.535,37.885,63.117,37.885z M50.903,56.912c-0.146-0.021-0.29-0.045-0.441-0.045
							c-1.743,0-3.164,1.42-3.164,3.164c0,1.743,1.421,3.165,3.164,3.165c1.745,0,3.164-1.422,3.164-3.165
							c0-0.827-0.326-1.575-0.846-2.14l3.391-5.427c2.292,1.735,3.783,4.477,3.783,7.566c0,5.235-4.259,9.492-9.492,9.492
							s-9.491-4.257-9.491-9.492c0-5.234,4.258-9.491,9.491-9.491c1.39,0,2.706,0.306,3.896,0.845L50.903,56.912z M51.517,60.031
							c0,0.583-0.472,1.056-1.055,1.056c-0.582,0-1.054-0.473-1.054-1.056c0-0.582,0.472-1.055,1.054-1.055
							C51.045,58.977,51.517,59.449,51.517,60.031z M35.697,48.726V21.011h10.547v23.791c-5.334,1.479-9.533,5.678-11.013,11.012
							h-3.846L35.697,48.726z M53.826,82.178H28.115c-3.959,0-7.182-3.222-7.182-7.181c0-1.32,0.362-2.61,1.046-3.736l8.12-13.34
							h4.701c-0.093,0.692-0.158,1.394-0.158,2.11c0,8.723,7.097,15.819,15.819,15.819c3.792,0,7.274-1.342,10.001-3.574
							c0.354,0.859,0.546,1.782,0.546,2.721C61.009,78.956,57.787,82.178,53.826,82.178z M50.462,73.741
							c-7.558,0-13.71-6.151-13.71-13.71c0-7.56,6.152-13.709,13.71-13.709c2.212,0,4.293,0.538,6.142,1.47l-1.123,1.797
							c-1.521-0.733-3.219-1.158-5.019-1.158c-6.396,0-11.601,5.205-11.601,11.601c0,6.397,5.204,11.601,11.601,11.601
							s11.601-5.203,11.601-11.601c0-3.843-1.885-7.245-4.771-9.358l1.12-1.791c3.479,2.489,5.76,6.553,5.76,11.149
							C64.171,67.59,58.021,73.741,50.462,73.741z M67.335,62.141h-1.211c0.093-0.692,0.158-1.393,0.158-2.109
							s-0.065-1.418-0.158-2.11h1.211V62.141z M79.991,62.141H69.443v-4.22h10.548c1.163,0,2.109,0.947,2.109,2.11
							C82.101,61.193,81.154,62.141,79.991,62.141z"/>
					</g>
					<g>
						<linearGradient id="SVGID_2_" gradientUnits="userSpaceOnUse" x1="123.5381" y1="77.2139" x2="24.5065" y2="-21.8177">
							<stop  offset="0" style="stop-color:#ED7D21"/>
							<stop  offset="1" style="stop-color:#C71F39"/>
						</linearGradient>
						<rect x="68.391" y="22.066" fill="url(#SVGID_2_)" width="2.108" height="2.109"/>
					</g>
					<g>
						<linearGradient id="SVGID_3_" gradientUnits="userSpaceOnUse" x1="120.9063" y1="79.8457" x2="21.8747" y2="-19.1859">
							<stop  offset="0" style="stop-color:#ED7D21"/>
							<stop  offset="1" style="stop-color:#C71F39"/>
						</linearGradient>
						<polygon fill="url(#SVGID_3_)" points="65.721,23.167 67.211,24.659 65.721,26.151 64.229,24.659 						"/>
					</g>
					<g>
						<linearGradient id="SVGID_4_" gradientUnits="userSpaceOnUse" x1="118.2656" y1="82.4863" x2="19.2341" y2="-16.5452">
							<stop  offset="0" style="stop-color:#ED7D21"/>
							<stop  offset="1" style="stop-color:#C71F39"/>
						</linearGradient>
						<rect x="63.117" y="27.338" fill="url(#SVGID_4_)" width="2.109" height="2.109"/>
					</g>
					<g>
						<linearGradient id="SVGID_5_" gradientUnits="userSpaceOnUse" x1="117.1787" y1="83.5732" x2="18.1472" y2="-15.4583">
							<stop  offset="0" style="stop-color:#ED7D21"/>
							<stop  offset="1" style="stop-color:#C71F39"/>
						</linearGradient>
						<polygon fill="url(#SVGID_5_)" points="65.721,33.606 64.229,32.115 65.721,30.624 67.211,32.115 						"/>
					</g>
					<g>
						<linearGradient id="SVGID_6_" gradientUnits="userSpaceOnUse" x1="118.2656" y1="82.4863" x2="19.2341" y2="-16.5452">
							<stop  offset="0" style="stop-color:#ED7D21"/>
							<stop  offset="1" style="stop-color:#C71F39"/>
						</linearGradient>
						<rect x="68.391" y="32.611" fill="url(#SVGID_6_)" width="2.108" height="2.109"/>
					</g>
					<g>
						<linearGradient id="SVGID_7_" gradientUnits="userSpaceOnUse" x1="120.8994" y1="79.8525" x2="21.8679" y2="-19.179">
							<stop  offset="0" style="stop-color:#ED7D21"/>
							<stop  offset="1" style="stop-color:#C71F39"/>
						</linearGradient>
						<polygon fill="url(#SVGID_7_)" points="73.169,30.631 74.659,32.123 73.169,33.614 71.678,32.123 						"/>
					</g>
					<g>
						<linearGradient id="SVGID_8_" gradientUnits="userSpaceOnUse" x1="123.5391" y1="77.2129" x2="24.5075" y2="-21.8187">
							<stop  offset="0" style="stop-color:#ED7D21"/>
							<stop  offset="1" style="stop-color:#C71F39"/>
						</linearGradient>
						<rect x="73.664" y="27.338" fill="url(#SVGID_8_)" width="2.108" height="2.109"/>
					</g>
					<g>
						<linearGradient id="SVGID_9_" gradientUnits="userSpaceOnUse" x1="124.6279" y1="76.126" x2="25.5964" y2="-22.9056">
							<stop  offset="0" style="stop-color:#ED7D21"/>
							<stop  offset="1" style="stop-color:#C71F39"/>
						</linearGradient>
						<polygon fill="url(#SVGID_9_)" points="73.169,23.175 74.66,24.667 73.169,26.159 71.678,24.667 						"/>
					</g>
					<g>
						<linearGradient id="SVGID_10_" gradientUnits="userSpaceOnUse" x1="116.1563" y1="84.5957" x2="17.1247" y2="-14.4359">
							<stop  offset="0" style="stop-color:#ED7D21"/>
							<stop  offset="1" style="stop-color:#C71F39"/>
						</linearGradient>
						<rect x="58.899" y="27.338" fill="url(#SVGID_10_)" width="2.109" height="2.109"/>
					</g>
					<g>
						<linearGradient id="SVGID_11_" gradientUnits="userSpaceOnUse" x1="114.0479" y1="86.7041" x2="15.0163" y2="-12.3275">
							<stop  offset="0" style="stop-color:#ED7D21"/>
							<stop  offset="1" style="stop-color:#C71F39"/>
						</linearGradient>
						<rect x="54.682" y="27.338" fill="url(#SVGID_11_)" width="2.108" height="2.109"/>
					</g>
					<g>
						<linearGradient id="SVGID_12_" gradientUnits="userSpaceOnUse" x1="111.9385" y1="88.8135" x2="12.9069" y2="-10.2181">
							<stop  offset="0" style="stop-color:#ED7D21"/>
							<stop  offset="1" style="stop-color:#C71F39"/>
						</linearGradient>
						<rect x="50.462" y="27.338" fill="url(#SVGID_12_)" width="2.11" height="2.109"/>
					</g>
				</g>
			</g>
		</g>
	</g>
	<g>
		<linearGradient id="SVGID_13_" gradientUnits="userSpaceOnUse" x1="91.751" y1="109.001" x2="-7.2806" y2="9.9694">
			<stop  offset="0" style="stop-color:#ED7D21"/>
			<stop  offset="1" style="stop-color:#C71F39"/>
		</linearGradient>
		<path fill="url(#SVGID_13_)" d="M23.794,37.52h-8.049c-0.276,0-0.5-0.224-0.5-0.5s0.224-0.5,0.5-0.5h8.049
			c0.276,0,0.5,0.224,0.5,0.5S24.07,37.52,23.794,37.52z"/>
	</g>
	<g>
		<linearGradient id="SVGID_14_" gradientUnits="userSpaceOnUse" x1="90.5625" y1="110.1895" x2="-8.4691" y2="11.1579">
			<stop  offset="0" style="stop-color:#ED7D21"/>
			<stop  offset="1" style="stop-color:#C71F39"/>
		</linearGradient>
		<path fill="url(#SVGID_14_)" d="M19.119,35.221h-8.052c-0.276,0-0.5-0.224-0.5-0.5s0.224-0.5,0.5-0.5h8.052
			c0.276,0,0.5,0.224,0.5,0.5S19.396,35.221,19.119,35.221z"/>
	</g>
	<g>
		<linearGradient id="SVGID_15_" gradientUnits="userSpaceOnUse" x1="102.8027" y1="97.9492" x2="3.7712" y2="-1.0823">
			<stop  offset="0" style="stop-color:#ED7D21"/>
			<stop  offset="1" style="stop-color:#C71F39"/>
		</linearGradient>
		<path fill="url(#SVGID_15_)" d="M82.77,74.39h-8.051c-0.276,0-0.5-0.224-0.5-0.5s0.224-0.5,0.5-0.5h8.051
			c0.276,0,0.5,0.224,0.5,0.5S83.046,74.39,82.77,74.39z"/>
	</g>
	<g>
		<linearGradient id="SVGID_16_" gradientUnits="userSpaceOnUse" x1="107.1777" y1="93.5742" x2="8.1462" y2="-5.4573">
			<stop  offset="0" style="stop-color:#ED7D21"/>
			<stop  offset="1" style="stop-color:#C71F39"/>
		</linearGradient>
		<path fill="url(#SVGID_16_)" d="M89.222,72.092h-8.051c-0.276,0-0.5-0.224-0.5-0.5s0.224-0.5,0.5-0.5h8.051
			c0.276,0,0.5,0.224,0.5,0.5S89.498,72.092,89.222,72.092z"/>
	</g>
	<g>
		<linearGradient id="SVGID_17_" gradientUnits="userSpaceOnUse" x1="95.6064" y1="105.1455" x2="-3.4251" y2="6.114">
			<stop  offset="0" style="stop-color:#ED7D21"/>
			<stop  offset="1" style="stop-color:#C71F39"/>
		</linearGradient>
		<circle fill="url(#SVGID_17_)" cx="50.516" cy="60.055" r="1.398"/>
	</g>
	<g>
		<linearGradient id="SVGID_18_" gradientUnits="userSpaceOnUse" x1="112.4453" y1="88.3066" x2="13.4138" y2="-10.7249">
			<stop  offset="0" style="stop-color:#ED7D21"/>
			<stop  offset="1" style="stop-color:#C71F39"/>
		</linearGradient>
		<circle fill="url(#SVGID_18_)" cx="63.118" cy="38.98" r="1.399"/>
	</g>
	<g>
		<linearGradient id="SVGID_19_" gradientUnits="userSpaceOnUse" x1="104.8076" y1="95.9443" x2="5.7761" y2="-3.0872">
			<stop  offset="0" style="stop-color:#ED7D21"/>
			<stop  offset="1" style="stop-color:#C71F39"/>
		</linearGradient>
		<rect x="41.14" y="23.12" fill="url(#SVGID_19_)" width="3.552" height="21.863"/>
	</g>
</g>
</svg>
