<?xml version="1.0" encoding="utf-8"?>
<!-- Generator: Adobe Illustrator 16.0.0, SVG Export Plug-In . SVG Version: 6.00 Build 0)  -->
<!DOCTYPE svg PUBLIC "-//W3C//DTD SVG 1.1//EN" "http://www.w3.org/Graphics/SVG/1.1/DTD/svg11.dtd">
<svg version="1.1" id="Layer_1" xmlns="http://www.w3.org/2000/svg" xmlns:xlink="http://www.w3.org/1999/xlink" x="0px" y="0px"
	 width="100px" height="100px" viewBox="0 0 100 100" enable-background="new 0 0 100 100" xml:space="preserve">
<g>
	<g>
		<g>
			<g>
				<g>
					<linearGradient id="SVGID_1_" gradientUnits="userSpaceOnUse" x1="96.2295" y1="105.2705" x2="19.3398" y2="28.3808">
						<stop  offset="0" style="stop-color:#ED7D21"/>
						<stop  offset="1" style="stop-color:#C71F39"/>
					</linearGradient>
					<path fill="url(#SVGID_1_)" d="M73.97,33.291v-0.108c-0.107-0.107-0.107-0.215-0.216-0.323L62.998,22.104
						c-0.107-0.107-0.216-0.107-0.322-0.215h-0.107c-0.108,0-0.215-0.107-0.322-0.107l0,0h-34.42c-0.646,0-1.076,0.43-1.076,1.076
						v62.384c0,0.646,0.43,1.076,1.076,1.076h45.176c0.645,0,1.074-0.431,1.074-1.076V33.613l0,0
						C74.076,33.506,74.076,33.397,73.97,33.291z M70.42,32.537h-7.099v-7.1L70.42,32.537z M51.488,84.166v-4.302h2.151
						c0.646,0,1.076-0.431,1.076-1.075v-4.303h1.075c0.646,0,1.077-0.431,1.077-1.076v-7.959c5.269-2.474,8.604-7.745,8.604-13.553
						c0-8.282-6.777-15.059-15.06-15.059c-8.281,0-15.059,6.777-15.059,15.059c0,5.808,3.337,11.079,8.605,13.553v7.959
						c0,0.646,0.431,1.076,1.075,1.076h1.075v4.303c0,0.645,0.432,1.075,1.077,1.075h2.15v4.302H28.9V23.933h32.271v9.68
						c0,0.646,0.43,1.076,1.075,1.076h9.68v49.478H51.488z M46.11,68.032c0-1.612,0-3.227,0-3.227c0-0.431-0.214-0.752-0.645-0.968
						c-4.84-2.044-7.96-6.777-7.96-11.939c0-7.099,5.809-12.907,12.907-12.907c7.1,0,12.908,5.808,12.908,12.907
						c0,5.162-3.121,9.896-7.961,11.939c-0.429,0.107-0.645,0.537-0.645,0.968v7.529H53.64h-6.452H46.11c0,0,0-1.291,0-2.151h5.378
						v-2.151H46.11z M48.262,74.486h4.302v3.227h-4.302V74.486z"/>
				</g>
				<g>
					<linearGradient id="SVGID_2_" gradientUnits="userSpaceOnUse" x1="99.4707" y1="102.0293" x2="22.581" y2="25.1396">
						<stop  offset="0" style="stop-color:#ED7D21"/>
						<stop  offset="1" style="stop-color:#C71F39"/>
					</linearGradient>
					<path fill="url(#SVGID_2_)" d="M51.488,50.178l2.904-2.905l-1.504-1.505l-2.476,2.474l-2.475-2.474l-1.503,1.505l2.902,2.905
						v11.4h2.15C51.488,61.578,51.488,51.037,51.488,50.178z"/>
				</g>
				<g>
					<linearGradient id="SVGID_3_" gradientUnits="userSpaceOnUse" x1="118.0449" y1="83.4551" x2="41.1552" y2="6.5653">
						<stop  offset="0" style="stop-color:#ED7D21"/>
						<stop  offset="1" style="stop-color:#C71F39"/>
					</linearGradient>
					<path fill="url(#SVGID_3_)" d="M90.212,21.781h-6.453c-0.646,0-1.076,0.43-1.076,1.076v4.302h-3.228
						c-0.646,0-1.075,0.43-1.075,1.076v32.269h2.151V29.31h2.151v5.378v40.874c0,0.215,0.106,0.537,0.214,0.645l3.118,9.358
						c0.109,0.429,0.54,0.752,0.97,0.752c0.432,0,0.859-0.323,0.969-0.752l3.118-9.358c0.108-0.216,0.216-0.43,0.216-0.645V34.688
						V22.857C91.287,22.211,90.857,21.781,90.212,21.781z M84.834,35.764h4.303v38.722h-4.303V35.764z M84.834,23.933h4.303v9.68
						h-4.303V23.933z M86.984,81.8l-1.72-5.162h3.441L86.984,81.8z"/>
				</g>
				<g>
					<linearGradient id="SVGID_4_" gradientUnits="userSpaceOnUse" x1="104.5791" y1="96.9209" x2="27.6894" y2="20.0312">
						<stop  offset="0" style="stop-color:#ED7D21"/>
						<stop  offset="1" style="stop-color:#C71F39"/>
					</linearGradient>
					<rect x="33.203" y="27.159" fill="url(#SVGID_4_)" width="5.378" height="2.151"/>
				</g>
				<g>
					<linearGradient id="SVGID_5_" gradientUnits="userSpaceOnUse" x1="104.5791" y1="96.9209" x2="27.6894" y2="20.0312">
						<stop  offset="0" style="stop-color:#ED7D21"/>
						<stop  offset="1" style="stop-color:#C71F39"/>
					</linearGradient>
					<rect x="33.203" y="31.461" fill="url(#SVGID_5_)" width="13.984" height="2.151"/>
				</g>
			</g>
		</g>
	</g>
	<g>
		<linearGradient id="SVGID_6_" gradientUnits="userSpaceOnUse" x1="119.5693" y1="81.9307" x2="42.6796" y2="5.0409">
			<stop  offset="0" style="stop-color:#ED7D21"/>
			<stop  offset="1" style="stop-color:#C71F39"/>
		</linearGradient>
		<rect x="85.6" y="35.765" fill="url(#SVGID_6_)" width="3.429" height="27.819"/>
	</g>
	<g>
		<linearGradient id="SVGID_7_" gradientUnits="userSpaceOnUse" x1="90.9277" y1="110.5723" x2="14.038" y2="33.6825">
			<stop  offset="0" style="stop-color:#ED7D21"/>
			<stop  offset="1" style="stop-color:#C71F39"/>
		</linearGradient>
		<path fill="url(#SVGID_7_)" d="M22.706,37.681H12.46c-0.25,0-0.453-0.203-0.453-0.454c0-0.25,0.203-0.453,0.453-0.453h10.246
			c0.25,0,0.453,0.203,0.453,0.453C23.159,37.478,22.956,37.681,22.706,37.681z"/>
	</g>
	<g>
		<linearGradient id="SVGID_8_" gradientUnits="userSpaceOnUse" x1="89.415" y1="112.085" x2="12.5253" y2="35.1952">
			<stop  offset="0" style="stop-color:#ED7D21"/>
			<stop  offset="1" style="stop-color:#C71F39"/>
		</linearGradient>
		<path fill="url(#SVGID_8_)" d="M16.755,34.756H6.511c-0.251,0-0.454-0.203-0.454-0.454s0.203-0.454,0.454-0.454h10.244
			c0.251,0,0.453,0.203,0.453,0.454S17.006,34.756,16.755,34.756z"/>
	</g>
	<g>
		<linearGradient id="SVGID_9_" gradientUnits="userSpaceOnUse" x1="76.793" y1="124.707" x2="-0.0968" y2="47.8173">
			<stop  offset="0" style="stop-color:#ED7D21"/>
			<stop  offset="1" style="stop-color:#C71F39"/>
		</linearGradient>
		<path fill="url(#SVGID_9_)" d="M19.184,70.973c-0.106,0-0.212-0.036-0.298-0.111c-0.189-0.164-0.209-0.45-0.044-0.64l3.188-3.656
			c0.163-0.19,0.45-0.21,0.64-0.045s0.209,0.451,0.044,0.64l-3.188,3.657C19.436,70.921,19.311,70.973,19.184,70.973z"/>
	</g>
	<g>
		<linearGradient id="SVGID_10_" gradientUnits="userSpaceOnUse" x1="76.793" y1="124.707" x2="-0.0968" y2="47.8173">
			<stop  offset="0" style="stop-color:#ED7D21"/>
			<stop  offset="1" style="stop-color:#C71F39"/>
		</linearGradient>
		<path fill="url(#SVGID_10_)" d="M22.604,70.74c-0.106,0-0.212-0.037-0.298-0.111l-3.653-3.191
			c-0.189-0.165-0.209-0.451-0.044-0.641c0.167-0.189,0.453-0.205,0.641-0.043l3.653,3.191c0.188,0.164,0.208,0.451,0.043,0.64
			C22.856,70.688,22.73,70.74,22.604,70.74z"/>
	</g>
	<g>
		<linearGradient id="SVGID_11_" gradientUnits="userSpaceOnUse" x1="122.7637" y1="78.7363" x2="45.8739" y2="1.8466">
			<stop  offset="0" style="stop-color:#ED7D21"/>
			<stop  offset="1" style="stop-color:#C71F39"/>
		</linearGradient>
		<path fill="url(#SVGID_11_)" d="M59.301,19.149c-0.106,0-0.212-0.037-0.298-0.112c-0.189-0.165-0.209-0.451-0.044-0.64
			l3.188-3.656c0.164-0.189,0.451-0.208,0.64-0.043c0.189,0.165,0.209,0.451,0.044,0.64l-3.188,3.656
			C59.553,19.097,59.428,19.149,59.301,19.149z"/>
	</g>
	<g>
		<linearGradient id="SVGID_12_" gradientUnits="userSpaceOnUse" x1="122.7627" y1="78.7373" x2="45.873" y2="1.8476">
			<stop  offset="0" style="stop-color:#ED7D21"/>
			<stop  offset="1" style="stop-color:#C71F39"/>
		</linearGradient>
		<path fill="url(#SVGID_12_)" d="M62.721,18.917c-0.106,0-0.213-0.037-0.299-0.112l-3.652-3.189
			c-0.188-0.165-0.208-0.451-0.044-0.64c0.167-0.188,0.453-0.207,0.641-0.043l3.652,3.19c0.188,0.165,0.208,0.451,0.044,0.64
			C62.972,18.864,62.846,18.917,62.721,18.917z"/>
	</g>
</g>
</svg>
