<?xml version="1.0" encoding="utf-8"?>
<!-- Generator: Adobe Illustrator 16.0.0, SVG Export Plug-In . SVG Version: 6.00 Build 0)  -->
<!DOCTYPE svg PUBLIC "-//W3C//DTD SVG 1.1//EN" "http://www.w3.org/Graphics/SVG/1.1/DTD/svg11.dtd">
<svg version="1.1" id="Layer_1" xmlns="http://www.w3.org/2000/svg" xmlns:xlink="http://www.w3.org/1999/xlink" x="0px" y="0px"
	 width="100px" height="100px" viewBox="0 0 100 100" enable-background="new 0 0 100 100" xml:space="preserve">
<g>
	<linearGradient id="SVGID_1_" gradientUnits="userSpaceOnUse" x1="114.9756" y1="84.6924" x2="7.14" y2="-23.1432">
		<stop  offset="0" style="stop-color:#ED7D21"/>
		<stop  offset="1" style="stop-color:#C71F39"/>
	</linearGradient>
	<path fill="url(#SVGID_1_)" d="M57.332,25.044c0,1.107-0.897,2.005-2.006,2.005h-5.432c-1.107,0-2.005-0.898-2.005-2.005v-5.432
		c0-1.108,0.898-2.005,2.005-2.005h5.432c1.108,0,2.006,0.897,2.006,2.005V25.044z"/>
</g>
<g>
	<linearGradient id="SVGID_2_" gradientUnits="userSpaceOnUse" x1="104.9707" y1="94.6973" x2="-2.8649" y2="-13.1383">
		<stop  offset="0" style="stop-color:#ED7D21"/>
		<stop  offset="1" style="stop-color:#C71F39"/>
	</linearGradient>
	<path fill="url(#SVGID_2_)" d="M78.082,65.802c0,1.108-0.897,2.007-2.006,2.007h-5.433c-1.106,0-2.004-0.898-2.004-2.007V60.37
		c0-1.107,0.897-2.005,2.004-2.005h5.433c1.108,0,2.006,0.897,2.006,2.005V65.802z"/>
</g>
<g>
	<linearGradient id="SVGID_3_" gradientUnits="userSpaceOnUse" x1="84.3721" y1="115.2959" x2="-23.4635" y2="7.4603">
		<stop  offset="0" style="stop-color:#ED7D21"/>
		<stop  offset="1" style="stop-color:#C71F39"/>
	</linearGradient>
	<path fill="url(#SVGID_3_)" d="M36.884,65.802c0,1.108-0.897,2.007-2.006,2.007h-5.432c-1.107,0-2.005-0.898-2.005-2.007V60.37
		c0-1.107,0.898-2.005,2.005-2.005h5.432c1.108,0,2.006,0.897,2.006,2.005V65.802z"/>
</g>
<g>
	<g>
		<g>
			<g>
				<linearGradient id="SVGID_4_" gradientUnits="userSpaceOnUse" x1="103.9141" y1="95.7539" x2="-3.9215" y2="-12.0817">
					<stop  offset="0" style="stop-color:#ED7D21"/>
					<stop  offset="1" style="stop-color:#C71F39"/>
				</linearGradient>
				<path fill="url(#SVGID_4_)" d="M39.588,38.744c0-3.169,2.492-5.66,5.661-5.66h1.472l3.169,8.378
					c0.114,0.34,0.566,0.68,1.02,0.68c0.454,0,0.905-0.34,1.246-0.68l3.17-8.378h1.247c3.168,0,5.659,2.491,5.659,5.66v11.323h2.265
					V38.744c0-4.415-3.511-7.925-7.924-7.925H45.249c-4.415,0-7.925,3.51-7.925,7.925v11.323h2.264V38.744L39.588,38.744z
					 M51.022,37.839l-1.811-4.755h3.624L51.022,37.839z"/>
			</g>
			<g>
				<linearGradient id="SVGID_5_" gradientUnits="userSpaceOnUse" x1="103.0859" y1="96.582" x2="-4.7496" y2="-11.2535">
					<stop  offset="0" style="stop-color:#ED7D21"/>
					<stop  offset="1" style="stop-color:#C71F39"/>
				</linearGradient>
				<rect x="49.778" y="43.273" fill="url(#SVGID_5_)" width="2.264" height="2.265"/>
			</g>
			<g>
				<linearGradient id="SVGID_6_" gradientUnits="userSpaceOnUse" x1="100.8213" y1="98.8467" x2="-7.0143" y2="-8.9889">
					<stop  offset="0" style="stop-color:#ED7D21"/>
					<stop  offset="1" style="stop-color:#C71F39"/>
				</linearGradient>
				<rect x="49.778" y="47.803" fill="url(#SVGID_6_)" width="2.264" height="2.264"/>
			</g>
			<g>
				<linearGradient id="SVGID_7_" gradientUnits="userSpaceOnUse" x1="114.125" y1="85.543" x2="6.2894" y2="-22.2926">
					<stop  offset="0" style="stop-color:#ED7D21"/>
					<stop  offset="1" style="stop-color:#C71F39"/>
				</linearGradient>
				<path fill="url(#SVGID_7_)" d="M49.778,29.687h2.264c3.17,0,5.66-2.491,5.66-5.661V20.63c0-3.171-2.49-5.661-5.66-5.661h-2.264
					c-3.17,0-5.662,2.49-5.662,5.661v3.396C44.116,27.196,46.607,29.687,49.778,29.687z M46.38,20.63
					c0-1.925,1.474-3.397,3.398-3.397h2.264c1.924,0,3.397,1.472,3.397,3.397v3.396c0,1.924-1.474,3.396-3.397,3.396h-2.264
					c-1.924,0-3.398-1.472-3.398-3.396V20.63z"/>
			</g>
			<g>
				<linearGradient id="SVGID_8_" gradientUnits="userSpaceOnUse" x1="98.8398" y1="100.8281" x2="-8.9957" y2="-7.0074">
					<stop  offset="0" style="stop-color:#ED7D21"/>
					<stop  offset="1" style="stop-color:#C71F39"/>
				</linearGradient>
				<rect x="42.984" y="42.142" fill="url(#SVGID_8_)" width="2.265" height="7.925"/>
			</g>
			<g>
				<linearGradient id="SVGID_9_" gradientUnits="userSpaceOnUse" x1="105.6338" y1="94.0342" x2="-2.2018" y2="-13.8014">
					<stop  offset="0" style="stop-color:#ED7D21"/>
					<stop  offset="1" style="stop-color:#C71F39"/>
				</linearGradient>
				<rect x="56.572" y="42.142" fill="url(#SVGID_9_)" width="2.263" height="7.925"/>
			</g>
			<g>
				<linearGradient id="SVGID_10_" gradientUnits="userSpaceOnUse" x1="75.3262" y1="124.3418" x2="-32.5094" y2="16.5062">
					<stop  offset="0" style="stop-color:#ED7D21"/>
					<stop  offset="1" style="stop-color:#C71F39"/>
				</linearGradient>
				<path fill="url(#SVGID_10_)" d="M36.192,71.577H24.869c-4.415,0-7.925,3.511-7.925,7.926v3.396h2.265v-3.396
					c0-3.169,2.49-5.661,5.66-5.661h1.473l3.169,8.38c0.113,0.34,0.566,0.678,1.019,0.678c0.453,0,0.906-0.338,1.246-0.678
					l3.17-8.38h1.246c3.168,0,5.66,2.492,5.66,5.661v3.396h2.264v-3.396C44.116,75.088,40.607,71.577,36.192,71.577z M30.643,78.598
					l-1.812-4.756h3.624L30.643,78.598z"/>
			</g>
			<g>
				<linearGradient id="SVGID_11_" gradientUnits="userSpaceOnUse" x1="83.5557" y1="116.1123" x2="-24.2799" y2="8.2767">
					<stop  offset="0" style="stop-color:#ED7D21"/>
					<stop  offset="1" style="stop-color:#C71F39"/>
				</linearGradient>
				<path fill="url(#SVGID_11_)" d="M29.398,70.445h2.265c3.17,0,5.661-2.49,5.661-5.66V61.39c0-3.172-2.491-5.663-5.661-5.663
					h-2.265c-3.169,0-5.661,2.491-5.661,5.663v3.396C23.737,67.955,26.229,70.445,29.398,70.445z M26.001,61.39
					c0-1.926,1.473-3.398,3.396-3.398h2.265c1.924,0,3.397,1.473,3.397,3.398v3.396c0,1.924-1.473,3.396-3.397,3.396h-2.265
					c-1.924,0-3.396-1.473-3.396-3.396V61.39z"/>
			</g>
			<g>
				<linearGradient id="SVGID_12_" gradientUnits="userSpaceOnUse" x1="95.7061" y1="103.9619" x2="-12.1295" y2="-3.8736">
					<stop  offset="0" style="stop-color:#ED7D21"/>
					<stop  offset="1" style="stop-color:#C71F39"/>
				</linearGradient>
				<path fill="url(#SVGID_12_)" d="M76.951,71.577H65.628c-4.416,0-7.926,3.511-7.926,7.926v3.396h2.265v-3.396
					c0-3.169,2.492-5.661,5.661-5.661h1.473l3.169,8.38c0.113,0.34,0.567,0.678,1.021,0.678s0.905-0.338,1.245-0.678l3.17-8.38
					h1.246c3.17,0,5.659,2.492,5.659,5.661v3.396h2.265v-3.396C84.875,75.088,81.365,71.577,76.951,71.577z M71.401,78.598
					l-1.812-4.756h3.624L71.401,78.598z"/>
			</g>
			<g>
				<linearGradient id="SVGID_13_" gradientUnits="userSpaceOnUse" x1="103.9355" y1="95.7324" x2="-3.9" y2="-12.1031">
					<stop  offset="0" style="stop-color:#ED7D21"/>
					<stop  offset="1" style="stop-color:#C71F39"/>
				</linearGradient>
				<path fill="url(#SVGID_13_)" d="M64.496,64.785c0,3.17,2.49,5.66,5.661,5.66h2.264c3.17,0,5.661-2.49,5.661-5.66V61.39
					c0-3.172-2.491-5.663-5.661-5.663h-2.264c-3.171,0-5.661,2.491-5.661,5.663V64.785z M66.761,61.39
					c0-1.926,1.473-3.398,3.396-3.398h2.264c1.925,0,3.397,1.473,3.397,3.398v3.396c0,1.924-1.473,3.396-3.397,3.396h-2.264
					c-1.924,0-3.396-1.473-3.396-3.396V61.39z"/>
			</g>
			<g>
				<linearGradient id="SVGID_14_" gradientUnits="userSpaceOnUse" x1="92.8965" y1="106.7715" x2="-14.9391" y2="-1.0641">
					<stop  offset="0" style="stop-color:#ED7D21"/>
					<stop  offset="1" style="stop-color:#C71F39"/>
				</linearGradient>
				<polygon fill="url(#SVGID_14_)" points="39.588,65.918 62.231,65.918 62.231,63.652 52.042,63.652 52.042,53.463 49.778,53.463 
					49.778,63.652 39.588,63.652 				"/>
			</g>
		</g>
	</g>
</g>
<g>
	<linearGradient id="SVGID_15_" gradientUnits="userSpaceOnUse" x1="92.3936" y1="107.2744" x2="-15.442" y2="-0.5611">
		<stop  offset="0" style="stop-color:#ED7D21"/>
		<stop  offset="1" style="stop-color:#C71F39"/>
	</linearGradient>
	<circle fill="url(#SVGID_15_)" cx="19.726" cy="34.607" r="1.755"/>
	<linearGradient id="SVGID_16_" gradientUnits="userSpaceOnUse" x1="92.3936" y1="107.2744" x2="-15.442" y2="-0.5611">
		<stop  offset="0" style="stop-color:#ED7D21"/>
		<stop  offset="1" style="stop-color:#C71F39"/>
	</linearGradient>
	<path fill="url(#SVGID_16_)" d="M19.726,36.614c-1.106,0-2.006-0.9-2.006-2.006s0.9-2.005,2.006-2.005
		c1.105,0,2.005,0.899,2.005,2.005S20.832,36.614,19.726,36.614z M19.726,33.104c-0.83,0-1.504,0.674-1.504,1.504
		c0,0.829,0.675,1.504,1.504,1.504s1.504-0.675,1.504-1.504C21.23,33.778,20.556,33.104,19.726,33.104z"/>
</g>
<g>
	<linearGradient id="SVGID_17_" gradientUnits="userSpaceOnUse" x1="110.4736" y1="89.1943" x2="2.6381" y2="-18.6412">
		<stop  offset="0" style="stop-color:#ED7D21"/>
		<stop  offset="1" style="stop-color:#C71F39"/>
	</linearGradient>
	<circle fill="url(#SVGID_17_)" cx="90.842" cy="69.563" r="1.755"/>
	<linearGradient id="SVGID_18_" gradientUnits="userSpaceOnUse" x1="110.4736" y1="89.1943" x2="2.6381" y2="-18.6412">
		<stop  offset="0" style="stop-color:#ED7D21"/>
		<stop  offset="1" style="stop-color:#C71F39"/>
	</linearGradient>
	<path fill="url(#SVGID_18_)" d="M90.843,71.567c-1.106,0-2.007-0.898-2.007-2.005s0.9-2.005,2.007-2.005
		c1.104,0,2.005,0.898,2.005,2.005S91.947,71.567,90.843,71.567z M90.843,68.059c-0.831,0-1.505,0.674-1.505,1.504
		c0,0.829,0.674,1.505,1.505,1.505c0.829,0,1.503-0.676,1.503-1.505C92.346,68.732,91.672,68.059,90.843,68.059z"/>
</g>
<g>
	<linearGradient id="SVGID_19_" gradientUnits="userSpaceOnUse" x1="81.9756" y1="117.6924" x2="-25.86" y2="9.8568">
		<stop  offset="0" style="stop-color:#ED7D21"/>
		<stop  offset="1" style="stop-color:#C71F39"/>
	</linearGradient>
	<path fill="url(#SVGID_19_)" d="M9.575,47.811c-0.277,0-0.502-0.224-0.502-0.501v-4.037c0-0.277,0.225-0.501,0.502-0.501
		c0.277,0,0.502,0.224,0.502,0.501v4.037C10.077,47.587,9.853,47.811,9.575,47.811z"/>
</g>
<g>
	<linearGradient id="SVGID_20_" gradientUnits="userSpaceOnUse" x1="81.9766" y1="117.6914" x2="-25.859" y2="9.8558">
		<stop  offset="0" style="stop-color:#ED7D21"/>
		<stop  offset="1" style="stop-color:#C71F39"/>
	</linearGradient>
	<path fill="url(#SVGID_20_)" d="M11.594,45.793H7.559c-0.278,0-0.502-0.224-0.502-0.501c0-0.277,0.224-0.501,0.502-0.501h4.036
		c0.278,0,0.502,0.224,0.502,0.501C12.096,45.569,11.872,45.793,11.594,45.793z"/>
</g>
<g>
	<linearGradient id="SVGID_21_" gradientUnits="userSpaceOnUse" x1="116.2139" y1="83.4541" x2="8.3783" y2="-24.3815">
		<stop  offset="0" style="stop-color:#ED7D21"/>
		<stop  offset="1" style="stop-color:#C71F39"/>
	</linearGradient>
	<path fill="url(#SVGID_21_)" d="M80.365,50.957c-0.116,0-0.234-0.042-0.329-0.124c-0.208-0.182-0.231-0.5-0.049-0.707l2.653-3.042
		c0.181-0.21,0.497-0.23,0.708-0.048c0.208,0.182,0.23,0.498,0.048,0.707l-2.653,3.042C80.645,50.897,80.506,50.957,80.365,50.957z"
		/>
</g>
<g>
	<linearGradient id="SVGID_22_" gradientUnits="userSpaceOnUse" x1="116.2129" y1="83.4551" x2="8.3773" y2="-24.3805">
		<stop  offset="0" style="stop-color:#ED7D21"/>
		<stop  offset="1" style="stop-color:#C71F39"/>
	</linearGradient>
	<path fill="url(#SVGID_22_)" d="M83.212,50.762c-0.116,0-0.234-0.04-0.329-0.123l-3.04-2.654c-0.21-0.182-0.23-0.499-0.048-0.708
		c0.184-0.208,0.5-0.229,0.708-0.048l3.039,2.655c0.208,0.182,0.23,0.499,0.048,0.708C83.49,50.704,83.353,50.762,83.212,50.762z"/>
</g>
<g>
	<linearGradient id="SVGID_23_" gradientUnits="userSpaceOnUse" x1="120.292" y1="79.376" x2="12.4564" y2="-28.4596">
		<stop  offset="0" style="stop-color:#ED7D21"/>
		<stop  offset="1" style="stop-color:#C71F39"/>
	</linearGradient>
	<path fill="url(#SVGID_23_)" d="M83.019,36.237H70.284c-0.276,0-0.502-0.225-0.502-0.501c0-0.277,0.226-0.501,0.502-0.501h12.734
		c0.276,0,0.501,0.225,0.501,0.501C83.52,36.012,83.295,36.237,83.019,36.237z"/>
</g>
<g>
	<linearGradient id="SVGID_24_" gradientUnits="userSpaceOnUse" x1="122.4502" y1="77.2178" x2="14.6146" y2="-30.6178">
		<stop  offset="0" style="stop-color:#ED7D21"/>
		<stop  offset="1" style="stop-color:#C71F39"/>
	</linearGradient>
	<path fill="url(#SVGID_24_)" d="M83.212,33.897h-9.167c-0.278,0-0.502-0.225-0.502-0.501s0.224-0.502,0.502-0.502h9.167
		c0.277,0,0.502,0.225,0.502,0.502S83.489,33.897,83.212,33.897z"/>
</g>
<g>
	<linearGradient id="SVGID_25_" gradientUnits="userSpaceOnUse" x1="102.8027" y1="96.8652" x2="-5.0328" y2="-10.9703">
		<stop  offset="0" style="stop-color:#ED7D21"/>
		<stop  offset="1" style="stop-color:#C71F39"/>
	</linearGradient>
	<path fill="url(#SVGID_25_)" d="M32.46,20.656H19.726c-0.277,0-0.501-0.224-0.501-0.501c0-0.276,0.224-0.5,0.501-0.5H32.46
		c0.277,0,0.501,0.224,0.501,0.5C32.961,20.432,32.737,20.656,32.46,20.656z"/>
</g>
<g>
	<linearGradient id="SVGID_26_" gradientUnits="userSpaceOnUse" x1="104.9619" y1="94.7061" x2="-2.8736" y2="-13.1295">
		<stop  offset="0" style="stop-color:#ED7D21"/>
		<stop  offset="1" style="stop-color:#C71F39"/>
	</linearGradient>
	<path fill="url(#SVGID_26_)" d="M32.654,18.316h-9.167c-0.276,0-0.501-0.224-0.501-0.501s0.225-0.501,0.501-0.501h9.167
		c0.277,0,0.501,0.224,0.501,0.501S32.931,18.316,32.654,18.316z"/>
</g>
</svg>
