<svg xmlns="http://www.w3.org/2000/svg" width="203" height="204" viewBox="0 0 203.1 203.8"><style>.a{fill:#F68D3D;}</style><path d="M201.4 101.9c0 0.9 0.7 0.6 0.8 0.7C202 101.1 201.2 101.9 201.4 101.9z" class="a"/><polygon points="198.5 86.7 198.9 86.9 197.8 84.8 " class="a"/><path d="M195.3 72.8c-0.8 1.6 1.7 4.9 1.8 7.5l-0.2 0.5 1.2 0.9c-0.4-1.5-1-3.2-1.6-4.8C195.9 75.3 195.4 73.9 195.3 72.8z" class="a"/><path d="M195.1 64.6c-0.3 0.6-1-1.4 0.5 1.8 0-0.2 0-0.2 0-0.3C195.5 65.7 195.4 65.3 195.1 64.6z" class="a"/><path d="M195.6 66C196.2 67.5 195.6 64.9 195.6 66L195.6 66z" class="a"/><path d="M192.6 59.6l1.2 1.7c0.1-0.5-0.6-2.2-0.2-1.7C192.6 57.8 192.5 58.3 192.6 59.6z" class="a"/><path d="M191 58.2c0 0 0.2 0.2 0.3 0.4 0.1 0.2 0.3 0.4 0.3 0.4C191.6 58.9 191.6 58.6 191 58.2z" class="a"/><path d="M192.9 60.9l-1.3-1.9c-0.1 0.4-0.4 0.5 0.5 0.9C191.8 59.9 192.3 60.2 192.9 60.9z" class="a"/><path d="M193.2 62.2c0.2 1.1 0.6 2.6-0.5 0.9 0.8 1.7 1.3 2.4 1.5 2.2C194.3 65 194.1 63.9 193.2 62.2z" class="a"/><path d="M193.9 72.5c0 0 0 0.4 0.1 0.7 0 0.4 0 0.8 0 0.8l0.7 1.1c-0.2-0.3-0.3-1-0.4-1.6C194.2 72.9 194 72.4 193.9 72.5z" class="a"/><path d="M187.1 48.1c-0.3 0-0.2 0.9-0.4 1.2 0 0 0.3 0.3 0.5 0.6 0.3 0.3 0.5 0.6 0.5 0.6C187.5 49.7 186.8 48.4 187.1 48.1z" class="a"/><path d="M186.7 49.4l-1.6-1.6C186.2 49.4 186.5 49.6 186.7 49.4z" class="a"/><path d="M189.6 58.5c0 0 0.6 0.7 1.2 1.4 0.6 0.7 1.2 1.5 1.2 1.5s-0.7-0.9-1.3-1.8c-0.3-0.4-0.7-0.9-0.9-1.2 -0.3-0.3-0.4-0.5-0.4-0.5L189.6 58.5z" class="a"/><path d="M182.3 41l1.2 0.7c0 0-0.5-0.3-1-0.7 -0.5-0.3-1.1-0.6-1.1-0.6L182.3 41z" class="a"/><path d="M178.6 36.6c1 0.4-0.2-1.5 0.7-1 -1.1-1.1-2.3-1.9-3.4-2.5C176.9 33.9 177.8 35 178.6 36.6z" class="a"/><path d="M174.1 32.1c0.5 0.4 1.1 0.7 1.8 1.1C175.4 32.7 174.8 32.4 174.1 32.1z" class="a"/><path d="M183.1 44.5c0-0.2 0.2-0.7-0.4-1.9l-0.1 1.1C182.8 44 182.9 44.3 183.1 44.5z" class="a"/><path d="M182.6 43.8l0 0c-0.5-0.8-0.9-1.3-1.1-1.6C181.7 42.4 182 42.9 182.6 43.8z" class="a"/><path d="M183.2 44.7c0-0.1-0.1-0.1-0.1-0.2C183.1 44.6 183.1 44.7 183.2 44.7z" class="a"/><path d="M187.5 53.1c-1-0.9-2.7-3-1.9-0.5C186.5 53.2 186 51.7 187.5 53.1z" class="a"/><path d="M183.1 46.1c0 0 0.3 0.5 0.6 1 0.3 0.5 0.6 1 0.6 1 0.1-0.1 0.1-0.6 0.7-0.2 0 0-0.4-0.5-0.9-0.9 -0.2-0.2-0.4-0.5-0.6-0.6C183.2 46.2 183.1 46.1 183.1 46.1z" class="a"/><polygon points="182.3 45.3 183.1 46.1 182.7 45.3 " class="a"/><path d="M176.4 35.5c-0.9-0.6-1.7-1.4-2.6-2.3 0.9 1.1 1.7 2.2 2.6 3.2C176.7 36.4 177.4 36.6 176.4 35.5z" class="a"/><path d="M179.5 39.5c-0.1 0-0.1-0.1-0.2-0.2C179.3 39.5 179.4 39.6 179.5 39.5z" class="a"/><path d="M164.8 24.7c0 0.1 0 0.2 0.1 0.2 0 0 0.1 0 0.1-0.1L164.8 24.7z" class="a"/><path d="M176.4 36.7c0.6 0.9 1.1 1.2 1.6 1.5 -0.6-0.5-1.1-1.1-1.7-1.8C176.3 36.4 176.2 36.5 176.4 36.7z" class="a"/><path d="M171.5 29.8c0.3 0.5 0.6 1 1 1.5C172.3 30.8 171.7 29.8 171.5 29.8z" class="a"/><path d="M179.2 39c0 0 0.1 0.1 0.1 0.1C179.3 38.7 179.2 38.8 179.2 39z" class="a"/><path d="M179.2 39c-0.4-0.3-0.8-0.6-1.2-0.8 0.4 0.4 0.8 0.9 1.2 1.2C179.3 39.2 179.2 39.1 179.2 39z" class="a"/><path d="M159 26.1c0.5-0.4 3 0.6 4.2 2.7 2 1 2.4-1.5 1.7-3.8 -0.2 0.2-0.4 0.3-2.5-0.8 0.5 0.7 3.4 3.9 1.5 3.1 -1.2-0.9-1.7-1.3-1.9-1.7 -0.2-0.4-0.3-0.7-0.7-1.3 0.5 1.4-3.8-1.4-4 0 0 0 0.6 0.3 1.2 0.6 0.6 0.3 1.2 0.6 1.2 0.6C159.5 25.8 158.6 25.5 159 26.1z" class="a"/><path d="M168.2 27.9l0.8 0.6c-0.7-0.9-1.1-1.6-1.9-2.9 -1.4-0.8-1.8-0.8-2.1-0.7 0 0 0.9 0.8 1.8 1.6 0.4 0.4 0.9 0.8 1.2 1.1 0.3 0.3 0.5 0.5 0.5 0.5L168.2 27.9z" class="a"/><path d="M172 31.5c-1-0.1-2.9-1.4-2.4 0.1 2 1.9 1.8 1 3.2 1.9 -3.2-3.1 1.2 0.7-0.8-2 0.7 0.6 1.3 1.1 1.8 1.6 -0.5-0.7-1-1.3-1.4-1.9 0 0 0 0.1 0 0.1l0 0c0 0 0 0 0 0 0.1 0.2 0.1 0.3 0 0.1 0 0-0.1 0-0.1-0.1 -0.1 0-0.2 0-0.3 0 -0.8-1.1 0-0.3 0.3 0 0 0 0.1 0 0.1 0l0 0c0 0-0.9-0.8-1.8-1.5 -0.9-0.7-1.8-1.4-1.8-1.4C169.5 29.3 170.5 30.1 172 31.5z" class="a"/><path d="M183 51.4c0-0.1 0-0.2 0.1-0.2C182.9 51 182.7 50.9 183 51.4z" class="a"/><path d="M182.4 49.6c0.3 0.2 0.6 0.3 1.1 1.2 0.3 0.9-0.3 0.2-0.5 0.3 0.5 0.4 1.6 1.6 0.9-0.3l-0.3-0.2c-0.7-1.6-1.2-4.1-1-3.9C182.5 47.6 182.3 48.3 182.4 49.6z" class="a"/><path d="M177.5 40.4c0 0-0.2-0.2-0.4-0.4 -0.2-0.3-0.6-0.6-0.9-0.9 -0.7-0.6-1.4-1.3-1.4-1.3l0.8 1.8 0.2-0.3C177.1 41 177.1 40.4 177.5 40.4z" class="a"/><path d="M164.7 24.2l0.9-0.3c0 0-0.6-0.2-1.2-0.3 -0.6-0.1-1.2-0.3-1.2-0.3L164.7 24.2z" class="a"/><path d="M160.8 21.2l0.5-0.4c0 0-0.3-0.1-0.6-0.2 -0.3-0.1-0.7-0.2-0.7-0.2L160.8 21.2z" class="a"/><path d="M19.6 150.2l0.7 0.8C20 150.6 19.8 150.4 19.6 150.2z" class="a"/><path d="M16.1 143.7l-0.4 0C16 143.9 16.2 143.9 16.1 143.7z" class="a"/><path d="M46.5 16.3c-1.7 0.3-3.8 0.5-3.2 1.1l0.8 0.3C45 16.9 45.8 16.5 46.5 16.3z" class="a"/><path d="M4.6 83.5c0.1-0.1 0.2-0.3 0.3-0.4 -0.2-0.4-0.3-0.8-0.4-1.2C4.5 82.4 4.5 83 4.6 83.5z" class="a"/><path d="M7.4 85.2l-0.8 1.9C6.8 86.6 7.1 86 7.4 85.2z" class="a"/><path d="M47.6 179c0 0 0.3 0 0.7 0 0.4 0 0.7 0 0.7 0C47.4 178 47.9 178.8 47.6 179z" class="a"/><path d="M114.4 2.3c-1.4-0.5-2.5-0.7-3.4-0.9C112.6 2 113.8 2.8 114.4 2.3z" class="a"/><path d="M11.3 151.4c0.5 0.5 0.7 0.7 0.9 0.6C11.7 151.5 11.4 151.2 11.3 151.4z" class="a"/><path d="M106.9 1.1c0.2 0.1 0.5 0.1 0.7 0.2 1 0 2.1-0.1 3.3 0.1C109.7 1 108.3 0.7 106.9 1.1z" class="a"/><path d="M177.2 154.8c0.1-0.1 0.2-0.2 0.3-0.2C177.4 154.5 177.3 154.6 177.2 154.8z" class="a"/><path d="M199.6 116c0 0.5-0.1 1.2-0.2 1.9C199.5 117.6 199.6 117 199.6 116z" class="a"/><path d="M143.9 10.6C144.9 11 144.1 10.6 143.9 10.6L143.9 10.6z" class="a"/><path d="M147.1 15.5c-0.2 0-0.4 0-0.5 0.1C146.7 15.5 146.9 15.5 147.1 15.5z" class="a"/><path d="M96.6 5.5c0 0-0.1 0-0.1 0C96.8 5.6 96.7 5.6 96.6 5.5z" class="a"/><path d="M145.2 11.6c-0.3-0.3-0.7-0.5-1.1-0.8C144.2 11 144.6 11.2 145.2 11.6z" class="a"/><path d="M145.1 11.2c0.3 0.2 0.6 0.3 0.8 0.5C146.1 11.6 146 11.5 145.1 11.2z" class="a"/><path d="M142.5 10c0.6 0.2 1.1 0.5 1.5 0.8 -0.2-0.1-0.2-0.2-0.2-0.2C143.6 10.5 143.2 10.3 142.5 10z" class="a"/><path d="M112.4 197c0.1 0 0.1 0 0.2 0C113.6 196.6 113.2 196.7 112.4 197z" class="a"/><path d="M31.1 38.7c0 0 0-0.1 0.1-0.1 0 0-0.1 0.1-0.1 0.1L31.1 38.7z" class="a"/><path d="M29.1 41.7c0.3-1.7 0.9-2.3 1.8-3 0 0-0.6-0.1-1.2-0.3 -0.6-0.1-1.2-0.3-1.2-0.3s0.1 0.9 0.2 1.8C29 40.8 29.1 41.7 29.1 41.7z" class="a"/><path d="M30.2 164.4l-1.1-2.3c2.7 1.5 3.8 3.3 3 1 -0.9 0.6-2.6-1.1-4.1-2.8 -0.7-0.9-1.5-1.8-2.2-2.4 -0.7-0.6-1.3-1-1.8-0.7l-0.5-1.6c0.2 0.4 0.4 0.4 0.6 0.8 -0.9-3.1-2.7-1-4.6-4.5 -0.6-1.3-0.8-2.3-0.1-1.6l-2.1-2.4c-0.4-0.8 0-0.8 0.5 0 0 0-0.2-0.3-0.4-0.6 -0.2-0.4-0.5-0.9-0.8-1.4 -0.6-1-1.2-2.1-1.2-2.1l0.1 0c-0.6-0.4-1.8-1.6-2.3-2.2 -0.2-1.3 0.5 0.5 0.6 0.1 0 0-0.4-0.6-0.8-1.1 -0.2-0.3-0.4-0.6-0.6-0.8 -0.1-0.2-0.2-0.4-0.2-0.4 0.1-0.6 0.4-0.5 0.9 0 0.5 0.5 1 1.4 1.3 2.2 0.5-1.6 0.2-2-0.4-2.7 -0.6-0.7-1.4-1.8-1.7-4.5 0 0 0.1 0.1 0.2 0.3 0.1 0.2 0.3 0.5 0.4 0.8 0.3 0.5 0.6 1.1 0.6 1.1 0.3-1 0.2-1.8 0-2.9 -0.2-1-0.5-2.1-0.5-3.6 -0.2 0.7-0.2 5.9-1.6 3.4 -0.1-0.8-0.4-1.8-1.3-3.2 0.8-0.3 0.2-1.6-0.4-3.4l1.1-0.2c-0.9-1.9-1.3-1.6-2-2.6 -0.4-2.2 0.3-2.9 0.9-3.5 -0.5-3.6-0.9 2.7-1.8-1.5 0-0.8-0.1-1.5-0.2-2.1 -0.1-0.7-0.2-1.3-0.4-2 -0.3-1.3-0.8-2.7-1.2-4.5 0.2-2.2 0.7 0.3 0.9-0.5l-1-1.8c0-0.5 0.3-0.3 0.4-0.3 -0.4-1.6-1.1-0.1-1.5-2.6 -0.6-0.3-0.2-1.6 0.2-3.2 0.5-1.6 0.9-3.5 0.3-5.1 0.4-0.7 0.6 0.4 1.1 0.2C6 92.9 6.2 93.6 5.4 89.9c0 0 0.3-0.7 0.5-1.4 0.3-0.7 0.6-1.4 0.6-1.4 -1.2 2-1.6-0.9-2-3.5 -0.5 0.7-1 1.3-1.2 1.8 0 0 0-1 0.1-2.1 0-1 0.2-2.1 0.2-2.1 0.3-0.4 0.6 0 0.8 0.8 0-0.3-0.1-0.6-0.1-0.8 0.7-1.3 1.2-0.4 1.5 0.7 -0.3 0.4-0.7 0.9-1 1.3 0.5 1.1 1 2.1 1.7 2.1 -0.1-0.3-0.1-0.8-0.1-1.3 0.1 0.3 0.3 0.5 0.4 0.4 0.1-0.1 0-0.6-0.2-1.2l1.4-0.6 -0.4-0.3c0 0 0.5-1.2 0.9-2.4 0.2-0.6 0.5-1.2 0.7-1.6 0.2-0.4 0.3-0.7 0.3-0.7 0-1-0.1-1.9-0.2-2.9 0-1-0.1-2-0.1-3 0-1.1 0.1-2.2 0.3-3.4 0.2-1.2 0.5-2.5 1-3.9 0.2 1.7 1.2 0.9 2.1 1.3 -0.8 0.5-1.1 1.6-1.4 2.9 -0.1 0.7-0.3 1.3-0.4 2.1 -0.1 0.7-0.3 1.4-0.6 2.1 0.6-1.5 1-1 1-0.5 0 0 0-0.3 0.1-0.8 0.1-0.5 0.2-1.2 0.3-1.8 0.3-1.3 0.5-2.7 0.5-2.7 0.7 0.4 1-0.8 1.9-1.9 -1 0.1-0.8-0.9-0.4-2.2 0.4-1.4 1.3-3 1.6-4.1 0.6 0.1 0.8 0.9-0.5 3.2 2.5-2-0.1-4.3 2.4-6.4 -0.3 0.6-0.6 0.8-0.4 1.2 0.2-0.8 0.8-1.9 1.4-2.8 0.6-0.8 1.2-1.3 1.2-0.8l-0.3 0.6c0.6-0.9 1.4-2 2.2-3.3 0.8-1.2 1.7-2.5 2.4-3.7 1.6-2.4 2.7-4.5 2.4-5.2 0.2 0.1 1 1.5 1 1.9 0 0 0.1-0.6 0.2-1.4 0.1-0.8 0.3-2 0.5-3.1 0.2-1.2 0.4-2.3 0.6-3.1 0.2-0.9 0.3-1.4 0.3-1.4 0.4 1.3 4.3 1.5 2.4 4.6 0.9-0.6 1.8-1.4 3.1-3.2 -0.6 0.3-2.5 0-1.9-0.8 2.9-0.8 1.8-0.8 5-2.1 -1 0.5-1.4-1.7 0-2.8 0 0.4 1.3 1.4 1 1.9 0 0 0.5-1 1-2.1 0.5-1 1-2 1-2 -0.6 0.9 0.9 1.4 1.9 1.2 -0.3 0 0.4-0.6 1.3-1.2 0.9-0.6 2-1.3 2.4-1.7l-1.7 0.7c4-2.5 2.3-4.9 6.4-7.3 -0.3 0.6 0 2.8 2.2 1.8 0.2-0.7 0.7-2.3 1.6-4.1 0.9-1.7 2.2-3.7 4.1-4.9l1 0.2c0 0 0.7-0.5 1.4-1 0.7-0.5 1.4-0.9 1.4-0.9 -0.7 1-2 2.9-3.4 4.7 -1.4 1.9-2.8 3.8-3.8 5 1.8-0.4 0.7 0.4 3-0.9 1 0-0.9 1.3-1.6 1.7 0 0 1.4-0.6 2.7-1.2 0.7-0.3 1.4-0.6 1.9-0.8 0.5-0.2 0.9-0.3 0.9-0.3 -0.4-0.5 0.6-1.2 1.5-1.9 1-0.7 2-1.3 1.7-1.7 0 0-0.4 0.2-0.9 0.6 -0.5 0.3-1.2 0.8-1.9 1.3 -1.4 0.9-2.7 1.9-2.7 1.9 -0.4-0.5 0.1-1.6 1.3-2.8 0.6-0.6 1.3-1.3 2.2-1.8 0.9-0.5 1.8-1 2.9-1.4 1.2 0-0.1 2.2 0.2 2.5 0.2-0.3 1.1-0.9 2-1.3 0.9-0.4 1.8-0.8 2.1-0.7l-1.5 1.2c1.2-0.2 2-0.8 2.9-1.5 0.9-0.6 1.9-1.1 3.5-1 1-0.2 3.2 0.7 3.2 0 -1.9-0.9-3.2-4.7-2.3-5.9 0.2 0 1.6 0 3.1 0 1.5 0 3.2 0.2 3.8 0.4 1.8 0.7-2 2.8-0.5 3.4 0-0.3 0.8-0.9 1.2-1 1.1 0.1-0.3 1 2 0.5 0.2-1.2 4.6-0.5 0.9-1.1 2.2-0.6 2.4-0.1 5-0.4 -0.9-0.7 2.2-2.8 4.5-3.2 -0.1 0.3 0.4 0.7 0.7 0.8 1.2 0 2.2 0 3.2 0.1 1 0.1 1.9 0.2 2.7 0.3 0.9 0.1 1.7 0.2 2.7 0.3 0.9 0.1 1.9 0.2 3 0.3 0.4 0.3 2.4 0.8 1.5 1.2 0.6-0.1 1.2-0.4 2.6-0.3 2.4 1.3-3-0.2-1.2 1.2 0.2-0.6 3.5-0.5 5.5-0.6 -0.2-0.5-1.3-0.8-2.6-0.9 -1.3 0-2.7 0.1-3.7 0.2 0.1-0.7 1-1.3 2.5-1.8 0.7-0.2 1.6-0.4 2.6-0.5 1-0.1 2.1-0.1 3.3-0.1 3.7 0.4 1.4 1.2 2.1 1.1 1.7 0.5 2.9 0.6 3.9 0.6 1 0.1 1.7 0 2.5-0.1 1.4-0.1 2.8-0.2 5.4 1.2 1.9 1.6-0.5 1.7-0.2 2.5 -1.5-0.3-2.5-0.8-3.4-1.3 -0.9-0.5-1.7-0.9-2.7-1.2l2.3 1.1c-1 0-3-0.3-3.9-0.8 0.4 0.3 1.3 0.7 2.5 1.1 0.6 0.2 1.3 0.4 2 0.6 0.7 0.3 1.5 0.5 2.2 0.8 0.8 0.3 1.6 0.5 2.4 0.9 0.8 0.3 1.6 0.7 2.4 1 1.6 0.6 3 1.4 4.1 2.1 1 0.1 2.6 0.5 2.1-0.2l-1.6-0.6c-1.1-1.3 3.3 0.4 1.5-0.8 1.2 0.2 2.4 0.5 3.7 0.9 0.6 0.2 1.3 0.5 2 0.8 0.7 0.3 1.3 0.8 2 1.2l0 1.2c0.1-0.3-1.5-1.6-2.5-1.8 1.4 0.3 3.6 3.6 5.5 3.3 0 0-0.4-0.5-0.8-0.9 -0.4-0.5-0.8-0.9-0.8-0.9 1.1 0.3 2.4 0.7 3.8 1.2 1.3 0.5 2.6 1.2 3.7 2.1 -0.5-1.6-0.6-0.3-1.6-2.5 0.7 2.2-6.3-4.1-4.7-1.2 -0.6-1.1-1.3-1.7-2.1-2.3 -0.8-0.6-1.7-1.2-2.7-2.4 -0.1 0.3 0.6 1-1.5-0.2 -0.1 0-0.4 0-0.6 0 -0.1 0-0.1-0.1-0.1-0.1 0 0 0.1 0.1 0.1 0.1 -0.1 0-0.1 0 0 0 0.5 0.4 0.8 0.8 0.9 1 -0.7 0.1-1.9-0.4-3.1-0.8 -1.2-0.4-2.4-0.8-3.1-0.9 -1.2-0.7 0.7-0.1 0.1-0.8 0 0-0.5-0.1-1-0.1 -0.5 0-1-0.1-1-0.1 0.1-0.8-3.1-2.6 0.2-1.7L135.4 7.2c-1.6-1-3.9-2-5.5-2.2 -1.4-0.6-3.8-0.2-2.4-0.4 0 0-1.2-0.2-2.4-0.4 -1.2-0.2-2.4-0.3-2.4-0.3V3.7c-2.3-0.6-4.8-0.7-7.3-1 -2.5-0.2-5.1-0.6-7.8-1.4 -0.8 0-1.6 0.1-2.6 0.1 -1 0-2 0-3.4-0.1l-0.5-0.7c-1 0.1-2.6 0-4-0.1 -1.4-0.1-2.7-0.1-3.1 0.3 -0.6-0.4-1.5-0.6-2.6-0.6 -1.1-0.1-2.4 0.1-3.8 0.3 -1.3 0.2-2.7 0.4-4 0.7 -1.3 0.3-2.4 0.5-3.3 0.6l0 0.9c-1.2 0.2-2.4 0.6-3.7 0.9 -0.6 0.2-1.3 0.4-1.9 0.6 -0.7 0.2-1.3 0.5-2.1 0.8l0.4 0.7c-1.2 0.7-2.9 1-4.7 1.4 -0.9 0.2-1.9 0.4-2.9 0.7 -1 0.3-2 0.6-3 1 0.2-0.4 1.2-0.7 2-0.8 -1.3 0.1-2.6 0.4-3.8 0.9 -1.2 0.5-2.3 1.2-3.4 1.9 -1.1 0.7-2.2 1.5-3.2 2.1 -1.1 0.6-2.2 1.1-3.3 1.4 -0.9 0.8-1.6 1.1-2.4 1.4 0.1-0.1 0.2-0.1 0.2-0.2 -0.1 0.1-0.3 0.1-0.4 0.2 -0.5 0.1-1 0.3-1.6 0.5 0.5-0.1 1-0.2 1.3-0.4 -0.8 0.5-1.8 1.3-2.8 2.1l-0.9-0.4c-0.1 0.1-0.2 0.1-0.2 0.2 -1.3 0.4-0.7 0.9 0.3 1 -0.5 0.5-0.9 1-1.1 1.4 -1.6-0.5-2.5 2.3-4.5 2.1 -0.1 0.5-1.3 1.7-2.5 2.8 -1.1 1.2-2.1 2.5-1.8 3.3 -0.2-0.1-0.5 0.1 0-0.4 -1.2 0.8-2.3 1.7-3 2.9l-1.2-0.3c0 0-0.3 0.8-0.6 1.6 -0.3 0.8-0.6 1.6-0.6 1.6 -1.8 0.9-2.6 1.3-1.8-0.7 -0.6 1-1 1.7-1.3 2.3 -0.3 0.6-0.6 0.9-0.8 1.3 -0.5 0.7-0.9 1.4-1.7 3.2l-0.4-0.6c-0.8 1.1-1.5 3.4-2.5 3.7 -0.7 0.4-1.6 1.4-2.7 2.8 -1.1 1.3-2.2 3.1-3.4 5 -2.3 3.8-4.7 8.3-6.8 11.8 1.2-0.3 0.6 0.4-0.1 1.4 -0.7 1-1.5 2.2-0.9 2.6 -0.6 0.3-1.3 1.2-1.2-0.1 -0.6 2-1.2 3.4-1.7 4.7 -0.5 1.3-0.9 2.5-0.6 4 -0.6 0.3-0.4-1-0.8-0.7 0 0.4 0 1.4-0.4 1.7 -0.4 0.3-0.2-0.7-0.2-1.4 -0.3 1-0.4 1.8-0.4 2.5 0 0.7 0.1 1.2 0.3 1.6 0.4 0.8 1 1.1 1.6 1.4 -0.5 1-0.9 1.7-1 2.4 -0.1 0.7 0.1 1.4 0.4 2.2 -0.6 0.6-1.2 1.8-0.9-0.8 -0.1 0.4-0.3 1.1-0.5 2 -0.1 0.4-0.2 0.9-0.3 1.4 -0.1 0.5-0.2 1-0.2 1.5 -0.3 2-0.4 3.9 0.2 4.1 -0.3 0.4-0.2 2-0.1 2.4 -0.2 1.6-0.3 2.5-0.3 3.4 0 0.9-0.1 1.7-0.1 3.3l0.2-0.9c1.2 1.3 0.3 2.6 0.5 5.2l-0.1-0.1c-0.2 1.5-0.2 2.4-0.2 3 0 0.6 0.1 0.9 0.2 1.2 0.1 0.3 0.1 0.6 0.1 1.2 0 0.6 0 1.5-0.1 3l0.8-0.4c0.9 0.2 0.8 1.5 0.6 3.1 -0.1 1.7-0.3 3.7 0.4 5.3l0.2-1.3c0.4 0.8 0.2 2.2-0.2 3.6 -0.4 1.4-0.9 2.9-0.7 3.8 0 0.4-0.4-0.6-0.7-1.1 0.3 5.1 1.2 0.4 2.4 3.8 -0.3 0.8-1.7-0.4-1 2 0 0.7 1 2.2 2 4.1 1.1 1.8 2.2 3.8 2.4 5.6 0.1-0.9 0.2-1.7 1.2-0.3 1.1 2.3 1.5 7.1 3.9 8.5 0.1 0.3 0 0.5-0.1 0.6 0.7 0.8 1.6 2.1 2.5 3.3 1 1.2 1.9 2.2 2.6 2.5 -0.4 0.8 0 1.7 0.7 2.8 0.7 1 1.7 2.2 2.7 3.1 1 1 2 2 2.6 2.7 0.6 0.8 0.9 1.4 0.4 1.8 0 0 1 1.1 2.1 2.2 1.1 1.1 2.2 2.2 2.2 2.2l-0.3 0.1c1.3 1.5 2.4 2.3 3.2 2.8 0.9 0.5 1.6 0.8 2.3 1 0.6 0.7-0.1 0.5-0.2 0.5 2 2.1 3.1 3.2 4.3 4 1.2 0.8 2.5 1.4 4.8 2.2l-0.1 1c0.7 0.2 2.1 1.7 4.2 3.2 0.5 0.4 1.1 0.8 1.6 1.2 0.6 0.4 1.2 0.8 1.8 1.2 1.3 0.8 2.6 1.4 3.9 1.8 -0.1 0.1-0.3 0.1-0.7 0.1 3 1 6.2 3.2 9.1 4.7 2.9 1.6 5.6 2.5 7.2 1.4 0 0 1 0.2 2.1 0.3 1 0.1 2.1 0.2 2.1 0.2 -5-1.7 1.1-1.1-0.8-2.1 1 0.2 2.2 0.8 2.9 1.2 0.7 0.4 0.8 0.8-0.5 0.6l-0.3-0.3c-1.3 1.4 6.3 2.1 5.9 3.1 5.2 1 10.3 1.7 15.4 2.2 5.1 0.5 10.2 0.4 15.2 0 0 0-0.3-0.3-0.6-0.5 -0.3-0.3-0.6-0.6-0.6-0.6s0.2 0 0.5 0c0.3 0 0.7-0.1 1.2-0.1 0.9-0.1 1.7-0.2 1.7-0.2 0.9 0.2 1.3 0.8-1.1 1.1 1.4 0.5 4-1.1 4-1.4 4.8-0.4-1.6 1.8-0.2 1.5l2-0.4 -0.5-0.1c0.8-0.4 1.2-0.7 1.7-1 0.6-0.3 1.3-0.6 2.7-0.9 1.9-0.2 1.1 0.5 1.8 0.4 0 0.1 0.3 0.1 1.1-0.2 0 0 0.3 0 0.7-0.2 0.4-0.1 0.9-0.2 1.5-0.4 1.1-0.3 2.1-0.5 2.1-0.5l-1.9-0.5c1.7-1 3.9-1.1 1.7-1.6 1.6 0.4 5.5-0.7 9.2-2.2 1.8-0.7 3.5-1.6 4.9-2.2 1.4-0.7 2.4-1.2 2.9-1.3 0.5-0.5 1.1-0.9 1.6-1.3 0.5-0.4 1.1-0.8 1.7-1.2 1.2-0.8 2.5-1.5 3.9-2.3 -0.8 0.3-1.8-0.4 0.6-1.8 0.2 1.2 1.4 0.8 2.9-0.1 1.5-0.9 3.3-2 4.7-2.1 -1.1 0.2 0.4-1.1 1.8-2.4 1.4-1.3 2.5-2.6 0.8-2.1 1.9-1.4 0.7 0.6 2.4-0.2 0.9-1.1 2-2.2 3.1-3.2 0.6-0.5 1.1-1 1.7-1.6 0.6-0.5 1.2-1.1 1.8-1.7 0.6-0.6 1.2-1.1 1.8-1.7 0.6-0.6 1.2-1.2 1.8-1.8 1.2-1.2 2.3-2.6 3.3-4 -0.2-0.3-1.2 0.4-0.7-1.1 0 0 0.2-0.1 0.5-0.3 0.3-0.2 0.8-0.4 1.2-0.7 0.8-0.5 1.7-1.1 1.7-1.1 0.7-1.2-0.6-2 1.6-3.5 -0.4 0.2-1 0.4-0.6-0.4 4.3-5.3 7.3-11.7 9.7-18.3 2.4-6.6 4.3-13.3 6.7-20 -0.9 1.8-0.7 0.5-0.5-0.9 -0.3 0.9-0.7-0.1-1.1 0 0 0 0.1-0.3 0.3-0.9 0.2-0.5 0.4-1.2 0.6-1.9 0.2-0.7 0.5-1.4 0.6-1.9 0.2-0.5 0.3-0.9 0.3-0.9 -0.5-0.6-0.4-2.1-0.3-3.6 0.1-1.5 0.1-2.9-0.4-3.3l0.1 1.8c-0.6-1.2-1.3-0.4-2.1 0.6 -0.8 1-1.7 2.3-2.5 2.1 0.3 0.7 0.3 1.4 0.1 2.3 -0.2 0.8-0.6 1.7-0.9 2.6 -0.6 1.9-1.4 3.8-0.8 6.1 -0.5 0.9-0.4-0.9-0.8-0.5 0.5 1.2 0.3 2.5-0.5 4.8l-0.1-0.3c-0.3 1.7-0.8 3-1.2 4.3 -0.4 1.3-0.9 2.4-1.4 3.6 -0.5 1.2-1 2.3-1.7 3.6 -0.6 1.3-1.3 2.7-2.2 4.4l1-0.2c-0.8 1.4-1.1 1.6-1.6 2.3 0.3 2.2 1.9-4.1 2.5-2 -0.6 0.3-1.2 1.2-1.8 2.2 -0.6 1.1-1.3 2.3-1.9 3.5 -0.6 1.2-1.4 2.4-2 3.3 -0.7 0.9-1.3 1.5-1.9 1.6 -1.4 2.1 1.2-0.1-0.2 2l-0.8 0.3 0.2 0.9c-1 1.3-2 1.6-2.4 1.4 0.3-0.3 0.6-1 0.8-1.3 -0.9 0.7-1.7 1.9-2.3 3 -0.7 1.1-1.3 2.1-1.6 2.3 0 0 0.4-0.4 0.9-0.8 0.4-0.4 0.9-0.8 0.9-0.8 -1 1.4-2 2.9-3.2 4.3 -1.2 1.4-2.4 2.8-3.7 4.2 -0.6 0.7-1.3 1.4-1.9 2 -0.7 0.7-1.3 1.3-1.9 2 -1.2 1.3-2.5 2.6-3.6 3.8l0.6 0c-0.8 1-1.5 1.6-2.1 2 -0.6 0.4-1 0.7-1.5 1 -0.9 0.6-2 1.1-4.1 2.8l0.1-0.2c-0.7 1-1.8 1.9-3.2 2.7 0.9-1.1-2.7 0.7-1.4-0.7 -2.1 1.7-2.7 2.2-2.9 2.6 -0.3 0.4-0.3 0.8-1.6 2.3l-1-0.2c-0.9 1-0.8 1.4-3.3 2.8 1.9-1.4-2-0.1 0-1.8 -1.5 0.3-2.6 0.7-3.7 1.2 -1 0.5-1.9 0.9-2.6 1.4 -1.5 0.9-2.8 1.5-4.4 1 -1 1.2 0.3 1.1 1.6 0.7 1.4-0.4 2.8-1.1 2.1-0.6 0.7 0 0.3 0.5-0.5 1.1 -0.8 0.5-2.1 1.1-3 1.3 -0.9 0.3-1.8 0-3.1-0.2 -0.6-0.1-1.3-0.2-2.2-0.2 -0.4 0-0.9 0.1-1.3 0.1 -0.5 0.1-1 0.1-1.6 0.3 0.5-0.1 0.5-0.2 0.9-0.3 -0.9 0-1.7 0.3-2.5 0.6 -0.4 0.2-0.9 0.3-1.3 0.4 -0.5 0.1-1 0.1-1.5 0 -1 1.2-2.7 0.4-2.9 1.8l4.2-1.1c-1.2 0.4-2.2 1.1-3.6 1.6 -1.3 0.6-2.9 0.9-5 0.8 0.3-0.3 1.4-0.8 2.2-1.1 -1.2-0.3-2.2 0.6-3.5 0.3 0.1-0.7 1.4-0.9 3-1.1 0.8-0.1 1.6-0.2 2.4-0.4 0.8-0.2 1.6-0.5 2.1-0.8 -0.7-0.2-1.8 0.3-2.7 0.6s-1.5 0.3-0.9-0.5c-0.8 1-2 1.1-3.3 1.2 -1.3 0-2.8-0.1-4.3 0.8l0.2-0.8c-0.5 0.2-1.5 0.6-2.4 0.6l1.6-1.1c-2.5 0.9-4.9-0.6-7.3-0.2 2.5 0.1 2.8 0.3 2.7 0.6 -0.1 0.3-0.5 0.7 0.6 1 -6.4 1-3.6-2-10.5-2.2 0.9 0 3.5 0.8 2 1 -1.3-0.2-3-0.8-3.8-1.3 -4.6-0.4 0.6 0.9-1.4 1.1 -1.4-1.1-2.3 0-4.4 0l0.1-0.8c-1.3-0.3-2-0.5-2.5-0.5 -0.5 0-0.7 0.2-0.9 0.4 -0.4 0.3-0.7 0.7-3-0.2l2.3-0.6c0 0-0.6-0.1-1.3-0.1 -0.3 0-0.6-0.1-0.9-0.1 -0.2 0-0.4-0.1-0.4-0.1l0.7-0.8c-1.4 0-2.3-0.2-3.1-0.4 -0.9-0.2-1.7-0.6-2.9-1.1 0.4 0.7-0.8 1.3-3.1 0.6 -1.4-1 1.1-0.4-2.1-1.5 0.9-0.2 1.9-0.5 3 0.7 0.2-0.2 0.9-0.2 1.1-0.4 -1.5-1-4-1.6-5.1-2 0.4 0.2 0.9 0.4 1.1 0.7 0 0-1.2-0.2-2.5-0.4 -1.2-0.2-2.4-0.5-2.4-0.5 -0.6-0.6 0.1-0.6 0.7-0.5 -0.9-0.3-1.7-0.2-3-0.8 0.6-0.4 0.8-1 2.8-0.5 0 0-0.3-0.1-0.7-0.2 -0.4-0.1-1-0.3-1.5-0.4 -1.1-0.4-2.2-0.7-2.2-0.7 -0.1-0.4-1.7-1.8-1.1-1.7 -1-0.8-2.5-1.3-4.1-1.9 -1.5-0.6-3.2-1.3-4.4-2.5 -0.2 0-0.6-0.1-1.2-0.4 -0.6-0.5-1.2-1-1.8-1.5 -0.6-0.5-1.1-1.1-1.7-1.6 -0.6-0.5-1.2-1-1.9-1.5 -0.7-0.5-1.4-1-2.3-1.4 0 0-0.2-0.6-0.4-1.1 -0.2-0.6-0.4-1.1-0.4-1.1 -2.3-1.8 1.1 3.1-2.8 0 -2.8-2.1-0.2-1.6-0.9-2.7 -0.8-0.4-1.9-0.9-3.1-1.8 -1.1-0.8-2.2-2-2.9-3.5C29.1 163 29.5 163.8 30.2 164.4zM11.5 133.6c0.2 0.3 0.5 0.7 0.8 1.2 0.3 0.4 0.5 0.9 0.3 1.2C11.4 135.5 11.6 134.8 11.5 133.6zM7.4 78.5c0.1 0.6-0.2 1.4-0.7 2.2C6.8 80 6.9 79.3 7.4 78.5zM133 6.9c0 0-0.1 0-0.1 0C131.4 6 131.9 6.4 133 6.9zM136.2 8.4c0.4 0 0.4-0.1 0.3-0.3 -0.3 0.1-1-0.2-1.9-0.6C134.8 7.9 135.1 8.2 136.2 8.4zM124 200.4l-0.7-0.1C124.8 199.7 124.4 200 124 200.4z" class="a"/><path d="M7.1 85c-0.2 0.2-0.3 0.2-0.5 0.2C6.7 85.5 6.8 85.5 7.1 85z" class="a"/><path d="M47.3 179l0.1 0.1c0.1 0 0.1 0 0.2-0.1L47.3 179z" class="a"/><path d="M83.7 10c-0.7 0-1.1-0.1-1.4-0.2C82.3 10 82.6 10.1 83.7 10z" class="a"/><path d="M153.6 15.5c0 0-0.5-0.3-1-0.5 -0.5-0.2-1-0.5-1-0.5 1 0.5 1.2 0.9 1.6 1.3C153.3 15.6 153 15.2 153.6 15.5z" class="a"/><path d="M166 31.2c0.3 0.1 0.5 0.5 0.8 0.6l0.2-0.3C166 30.6 165.1 30.1 166 31.2z" class="a"/><path d="M154 18.9c-0.2 0.7 1.1 1.2 2.4 2 -0.1-0.1-0.2-0.1-0.2-0.2C157.1 20.3 155.5 19.5 154 18.9z" class="a"/><path d="M156.7 21.1c0.4 0.3 0.8 0.5 1.2 0.8C158.2 21.8 157.4 21.6 156.7 21.1z" class="a"/><path d="M140.5 9.7c0.6 0.5 0.8-0.6 1.1-0.2C142.7 9.1 136.5 8.4 140.5 9.7z" class="a"/><polygon points="153.8 21.5 153.8 20.5 152.7 20.6 " class="a"/><path d="M143.6 14.9l2.1 1.3c0-0.1 0.3-0.1 0.7 0C145.1 15.6 143.7 14.7 143.6 14.9z" class="a"/><path d="M146.4 16.3c0.7 0.4 1.3 0.8 1.8 0.9C147.8 16.9 147 16.5 146.4 16.3z" class="a"/><path d="M150.8 19.9l-0.5-0.5 -1.5-0.9c0 0 0.5 0.4 1 0.7C150.4 19.5 150.8 19.9 150.8 19.9z" class="a"/><path d="M118.7 6.3l-2.7-0.2c-0.3 0.2 0.4 0.5 1.4 0.6C118.1 6.6 119.1 6.6 118.7 6.3z" class="a"/><path d="M126 10.4c-0.6-0.4-0.6-0.6-0.9-0.9l-0.3 1L126 10.4z" class="a"/><path d="M118.5 8.9c-0.3 0.2-3.9 0.2-0.6 0.7C118.2 9.3 120.8 9.6 118.5 8.9z" class="a"/><polygon points="79.2 8 79.8 7.8 79.4 6.1 " class="a"/><path d="M49.2 25c2.8-1.3 0-1.3 2.6-2.3 0.4-0.7-2.1 0.8-1.7 0.1C48.8 24.2 47.8 24.5 49.2 25z" class="a"/><path d="M50.1 22.8c0.2-0.2 0.4-0.5 0.7-0.7C50.3 22.4 50.2 22.7 50.1 22.8z" class="a"/><path d="M201.3 108.5c0 0 0.1-0.5 0.2-1 0.1-0.5 0.2-1.1 0.2-1.1l-0.6 1.3L201.3 108.5z" class="a"/><path d="M200.1 104.4l1.1-0.5 -1-1.3C200.3 103.1 200.4 104 200.1 104.4z" class="a"/><path d="M12 127.8l-0.3-0.1c-0.2 0.4-0.1 0.8 0.1 1.7L12 127.8z" class="a"/><polygon points="21.8 151.7 21.6 151.3 21.2 152.6 " class="a"/><path d="M36.4 167.8c-0.6-0.6-1.5-1.2-2.1-1.9C35.7 167.2 35.7 168.9 36.4 167.8z" class="a"/></svg>